# This file uses meters as units for non-parametric coordinates.

mtllib PLAG_SimpleBldg_11.mtl
g default
v 50.000015 0.000000 -86.602531
v -49.999985 0.000000 -86.602554
v -100.000000 0.000000 -0.000015
v -50.000011 0.000000 86.602539
v 49.999996 0.000000 86.602547
v 100.000000 0.000000 -0.000000
v 50.000023 1000.000000 -86.602531
v -49.999985 1000.000000 -86.602554
v -100.000000 1000.000000 -0.000015
v -50.000011 1000.000000 86.602539
v 49.999996 1000.000000 86.602547
v 100.000000 1000.000000 0.000000
v 50.000023 1100.000000 -86.602531
v -49.999985 1100.000000 -86.602554
v -100.000000 1100.000000 -0.000015
v -50.000011 1100.000000 86.602539
v 49.999996 1100.000000 86.602547
v 100.000000 1100.000000 0.000000
v 50.000023 400.000000 -86.602531
v -49.999985 400.000000 -86.602554
v -100.000000 400.000000 -0.000015
v -50.000011 400.000000 86.602539
v 49.999996 400.000000 86.602547
v 100.000000 400.000000 0.000000
v 50.000023 500.000000 -86.602531
v -49.999985 500.000000 -86.602554
v -100.000000 500.000000 -0.000015
v -50.000011 500.000000 86.602539
v 49.999996 500.000000 86.602547
v 100.000000 500.000000 0.000000
v 50.000023 500.000000 -86.602531
v -49.999985 500.000000 -86.602554
v -100.000000 500.000000 -0.000015
v -50.000011 500.000000 86.602539
v 49.999996 500.000000 86.602547
v 100.000000 500.000000 0.000000
v 50.000023 600.000000 -86.602531
v -49.999981 600.000000 -86.602554
v -100.000000 600.000000 -0.000015
v -50.000011 600.000000 86.602539
v 49.999996 600.000000 86.602547
v 100.000000 600.000000 0.000000
v 50.000023 600.000000 -86.602531
v -49.999985 600.000000 -86.602554
v -100.000000 600.000000 -0.000015
v -50.000011 600.000000 86.602539
v 49.999996 600.000000 86.602547
v 100.000000 600.000000 0.000000
v 50.000023 700.000000 -86.602531
v -49.999985 700.000000 -86.602554
v -100.000000 700.000000 -0.000015
v -50.000011 700.000000 86.602539
v 49.999996 700.000000 86.602547
v 100.000000 700.000000 0.000000
v 50.000023 700.000000 -86.602531
v -49.999985 700.000000 -86.602554
v -100.000000 700.000000 -0.000015
v -50.000015 700.000000 86.602539
v 49.999996 700.000000 86.602547
v 100.000000 700.000000 0.000000
v 50.000023 800.000000 -86.602531
v -49.999985 800.000000 -86.602554
v -100.000000 800.000000 -0.000015
v -50.000011 800.000000 86.602539
v 49.999996 800.000000 86.602547
v 100.000000 800.000000 0.000000
v 50.000023 800.000000 -86.602531
v -49.999985 800.000000 -86.602554
v -100.000000 800.000000 -0.000015
v -50.000011 800.000000 86.602539
v 49.999996 800.000000 86.602547
v 100.000000 800.000000 0.000000
v 50.000023 900.000000 -86.602531
v -49.999985 900.000000 -86.602554
v -100.000000 900.000000 -0.000015
v -50.000011 900.000000 86.602539
v 49.999996 900.000000 86.602547
v 100.000000 900.000000 0.000000
v 50.000023 900.000000 -86.602531
v -49.999985 900.000000 -86.602554
v -100.000000 900.000000 -0.000015
v -50.000011 900.000000 86.602539
v 49.999996 900.000000 86.602547
v 100.000000 900.000000 0.000000
v 50.000023 1000.000000 -86.602531
v -49.999985 1000.000000 -86.602554
v -100.000000 1000.000000 -0.000015
v -50.000011 1000.000000 86.602539
v 49.999996 1000.000000 86.602547
v 100.000000 1000.000000 0.000000
v 50.000023 100.000000 -86.602531
v -49.999985 100.000000 -86.602554
v -100.000000 100.000000 -0.000015
v -50.000011 100.000000 86.602539
v 49.999996 100.000000 86.602547
v 100.000000 100.000000 0.000000
v 50.000023 200.000000 -86.602531
v -49.999985 200.000000 -86.602554
v -100.000000 200.000000 -0.000015
v -50.000011 200.000000 86.602539
v 49.999996 200.000000 86.602547
v 100.000000 200.000000 0.000000
v 50.000023 200.000000 -86.602531
v -49.999985 200.000000 -86.602554
v -100.000000 200.000000 -0.000015
v -50.000011 200.000000 86.602539
v 49.999996 200.000000 86.602547
v 100.000000 200.000000 0.000000
v 50.000023 300.000000 -86.602531
v -49.999985 300.000000 -86.602554
v -100.000000 300.000000 -0.000015
v -50.000011 300.000000 86.602539
v 49.999996 300.000000 86.602547
v 100.000000 300.000000 0.000000
v 50.000023 0.000000 -86.602531
v -49.999985 0.000000 -86.602554
v -100.000000 0.000000 -0.000015
v -50.000011 0.000000 86.602539
v 49.999996 0.000000 86.602547
v 100.000000 0.000000 0.000000
v 50.000023 100.000000 -86.602531
v -49.999985 100.000000 -86.602554
v -100.000000 100.000000 -0.000015
v -50.000011 100.000000 86.602539
v 49.999996 100.000000 86.602547
v 100.000000 100.000000 0.000000
v 50.000023 300.000000 -86.602531
v -49.999985 300.000000 -86.602554
v -100.000000 300.000000 -0.000015
v -50.000011 300.000000 86.602539
v 49.999996 300.000000 86.602547
v 100.000000 300.000000 0.000000
v 50.000023 400.000000 -86.602531
v -49.999985 400.000000 -86.602554
v -100.000000 400.000000 -0.000015
v -50.000011 400.000000 86.602539
v 49.999996 400.000000 86.602547
v 100.000000 400.000000 0.000000
v 51.768894 700.000000 -83.538757
v -48.231113 700.000061 -86.602562
v -48.231113 800.000000 -86.602562
v 51.768894 800.000000 -83.538757
v 51.768894 900.000000 -83.538757
v -48.231113 900.000122 -86.602562
v -48.231113 1000.000000 -86.602562
v 51.768894 1000.000000 -83.538757
vt 0.150000 0.586603
vt 0.050000 0.586603
vt 0.000000 0.500000
vt 0.200000 0.500000
vt 0.050000 0.413397
vt 0.150000 0.413397
vt 0.000000 0.000000
vt 0.200000 0.000000
vt 0.200000 0.200000
vt 0.000000 0.200000
vt 0.000000 0.800000
vt 0.200000 0.800000
vt 0.200000 1.000000
vt 0.000000 1.000000
vt 0.000000 0.800000
vt 0.200000 0.800000
vt 0.200000 1.000000
vt 0.000000 1.000000
vt 0.000000 0.000000
vt 0.200000 0.000000
vt 0.200000 0.200000
vt 0.000000 0.200000
vt 0.000000 0.800000
vt 0.200000 0.800000
vt 0.200000 1.000000
vt 0.000000 1.000000
vt 0.000000 0.800000
vt 0.200000 0.800000
vt 0.200000 1.000000
vt 0.000000 1.000000
vt 0.050000 0.413397
vt 0.150000 0.413397
vt 0.200000 0.500000
vt 0.150000 0.586603
vt 0.050000 0.586603
vt 0.000000 0.500000
vt 0.600733 0.795402
vt 0.800732 0.795402
vt 0.800732 0.992337
vt 0.600733 0.992337
vt 0.600235 0.193886
vt 0.400235 0.193886
vt 0.400235 0.006146
vt 0.600235 0.006146
vt 0.399808 0.193886
vt 0.599808 0.193886
vt 0.599808 0.006146
vt 0.399808 0.006146
vt 0.600062 0.793512
vt 0.800062 0.793512
vt 0.800062 0.989425
vt 0.600062 0.989425
vt 0.600060 0.193359
vt 0.400060 0.193359
vt 0.400060 0.006641
vt 0.600060 0.006641
vt 0.400060 0.193359
vt 0.600060 0.193359
vt 0.600060 0.006641
vt 0.400060 0.006641
vt 0.800000 0.007663
vt 1.000000 0.007663
vt 1.000000 0.204598
vt 0.800000 0.204598
vt 0.600155 0.006638
vt 0.400155 0.006638
vt 0.400155 0.194377
vt 0.600155 0.194377
vt 0.400130 0.006638
vt 0.600130 0.006638
vt 0.600130 0.194377
vt 0.400130 0.194377
vt 0.800000 0.010213
vt 1.000000 0.010213
vt 1.000000 0.206127
vt 0.800000 0.206127
vt 0.600060 0.006641
vt 0.400060 0.006641
vt 0.400060 0.193359
vt 0.600060 0.193359
vt 0.400373 0.006641
vt 0.600373 0.006641
vt 0.600373 0.193359
vt 0.400373 0.193359
vt 0.800000 0.200206
vt 1.000000 0.200206
vt 1.000000 0.400206
vt 0.800000 0.400206
vt 0.600155 0.200000
vt 0.400155 0.200000
vt 0.400155 0.400000
vt 0.600155 0.400000
vt 0.400130 0.200000
vt 0.600130 0.200000
vt 0.600130 0.400000
vt 0.400130 0.400000
vt 0.800000 0.200000
vt 1.000000 0.200000
vt 1.000000 0.400000
vt 0.800000 0.400000
vt 0.600060 0.200000
vt 0.400060 0.200000
vt 0.400060 0.400000
vt 0.600060 0.400000
vt 0.400373 0.200000
vt 0.600373 0.200000
vt 0.600373 0.400000
vt 0.400373 0.400000
vt 0.800000 0.400000
vt 1.000000 0.400000
vt 1.000000 0.600000
vt 0.800000 0.600000
vt 0.600155 0.400000
vt 0.400155 0.400000
vt 0.400155 0.600000
vt 0.600155 0.600000
vt 0.400130 0.400000
vt 0.600130 0.400000
vt 0.600130 0.600000
vt 0.400130 0.600000
vt 0.800000 0.400000
vt 1.000000 0.400000
vt 1.000000 0.600000
vt 0.800000 0.600000
vt 0.600060 0.400000
vt 0.400060 0.400000
vt 0.400060 0.600000
vt 0.600060 0.600000
vt 0.400373 0.400000
vt 0.600373 0.400000
vt 0.600373 0.600000
vt 0.400373 0.600000
vt 0.799488 0.600000
vt 0.999488 0.600000
vt 0.999488 0.800000
vt 0.799488 0.800000
vt 0.600155 0.600000
vt 0.400155 0.600000
vt 0.400155 0.800000
vt 0.600155 0.800000
vt 0.400130 0.600000
vt 0.600130 0.600000
vt 0.600130 0.800000
vt 0.400130 0.800000
vt 0.800000 0.600000
vt 1.000000 0.600000
vt 1.000000 0.800000
vt 0.800000 0.800000
vt 0.600060 0.600000
vt 0.400060 0.600000
vt 0.400060 0.800000
vt 0.600060 0.800000
vt 0.400373 0.600000
vt 0.600373 0.600000
vt 0.600373 0.800000
vt 0.400373 0.800000
vt 0.800000 0.800000
vt 1.000000 0.800000
vt 1.000000 1.000000
vt 0.800000 1.000000
vt 0.600155 0.800000
vt 0.400155 0.800000
vt 0.400155 1.000000
vt 0.600155 1.000000
vt 0.400130 0.800000
vt 0.600130 0.800000
vt 0.600130 1.000000
vt 0.400130 1.000000
vt 0.800000 0.800000
vt 1.000000 0.800000
vt 1.000000 1.000000
vt 0.800000 1.000000
vt 0.600060 0.800000
vt 0.400060 0.800000
vt 0.400060 1.000000
vt 0.600060 1.000000
vt 0.400000 0.800000
vt 0.600000 0.800000
vt 0.600000 1.000000
vt 0.400000 1.000000
vt 0.600733 0.200000
vt 0.800732 0.200000
vt 0.800732 0.400000
vt 0.600733 0.400000
vt 0.600235 0.800000
vt 0.400235 0.800000
vt 0.400235 0.600000
vt 0.600235 0.600000
vt 0.399808 0.800000
vt 0.599808 0.800000
vt 0.599808 0.600000
vt 0.399808 0.600000
vt 0.600062 0.200000
vt 0.800062 0.200000
vt 0.800062 0.400000
vt 0.600062 0.400000
vt 0.600060 0.800000
vt 0.400060 0.800000
vt 0.400060 0.600000
vt 0.600060 0.600000
vt 0.400060 0.800000
vt 0.600060 0.800000
vt 0.600060 0.600000
vt 0.400060 0.600000
vt 0.600733 0.400000
vt 0.800732 0.400000
vt 0.800732 0.600000
vt 0.600733 0.600000
vt 0.600235 0.600000
vt 0.400235 0.600000
vt 0.400235 0.400000
vt 0.600235 0.400000
vt 0.399808 0.600000
vt 0.599808 0.600000
vt 0.599808 0.400000
vt 0.399808 0.400000
vt 0.600062 0.400000
vt 0.800062 0.400000
vt 0.800062 0.600000
vt 0.600062 0.600000
vt 0.600060 0.600000
vt 0.400060 0.600000
vt 0.400060 0.400000
vt 0.600060 0.400000
vt 0.400060 0.600000
vt 0.600060 0.600000
vt 0.600060 0.400000
vt 0.400060 0.400000
vt 0.000000 0.200000
vt 0.200000 0.200000
vt 0.200000 0.000000
vt 0.000000 0.000000
vt 0.200000 1.000000
vt 0.000000 1.000000
vt 0.000000 0.800000
vt 0.200000 0.800000
vt 0.000000 1.000000
vt 0.200000 1.000000
vt 0.200000 0.800000
vt 0.000000 0.800000
vt 0.000000 0.200000
vt 0.200000 0.200000
vt 0.200000 0.000000
vt 0.000000 0.000000
vt 0.200000 1.000000
vt 0.000000 1.000000
vt 0.000000 0.800000
vt 0.200000 0.800000
vt 0.000000 1.000000
vt 0.200000 1.000000
vt 0.200000 0.800000
vt 0.000000 0.800000
vt 0.600733 0.600000
vt 0.800732 0.600000
vt 0.800732 0.800000
vt 0.600733 0.800000
vt 0.600235 0.400000
vt 0.400235 0.400000
vt 0.400235 0.200000
vt 0.600235 0.200000
vt 0.399808 0.400000
vt 0.599808 0.400000
vt 0.599808 0.200000
vt 0.399808 0.200000
vt 0.600062 0.600000
vt 0.800062 0.600000
vt 0.800062 0.800000
vt 0.600062 0.800000
vt 0.600060 0.400000
vt 0.400060 0.400000
vt 0.400060 0.200000
vt 0.600060 0.200000
vt 0.400060 0.400000
vt 0.600060 0.400000
vt 0.600060 0.200000
vt 0.400060 0.200000
vn 0.000000 -1.000000 0.000000
vn 0.000000 -1.000000 0.000000
vn 0.000000 -1.000000 0.000000
vn 0.000000 -1.000000 0.000000
vn 0.000000 -1.000000 0.000000
vn 0.000000 -1.000000 0.000000
vn 0.000000 0.000000 -1.000000
vn 0.000000 0.000000 -1.000000
vn 0.000000 0.000000 -1.000000
vn 0.000000 0.000000 -1.000000
vn -0.866025 0.000000 -0.500000
vn -0.866025 0.000000 -0.500000
vn -0.866025 0.000000 -0.500000
vn -0.866025 0.000000 -0.500000
vn -0.866026 0.000000 0.500000
vn -0.866026 0.000000 0.500000
vn -0.866026 0.000000 0.500000
vn -0.866026 0.000000 0.500000
vn -0.000000 0.000000 1.000000
vn -0.000000 0.000000 1.000000
vn -0.000000 0.000000 1.000000
vn -0.000000 0.000000 1.000000
vn 0.866025 0.000000 0.500000
vn 0.866025 0.000000 0.500000
vn 0.866025 0.000000 0.500000
vn 0.866025 0.000000 0.500000
vn 0.866025 0.000000 -0.500000
vn 0.866025 0.000000 -0.500000
vn 0.866025 0.000000 -0.500000
vn 0.866025 0.000000 -0.500000
vn 0.000000 1.000000 -0.000000
vn 0.000000 1.000000 0.000000
vn 0.000000 1.000000 0.000000
vn 0.000000 1.000000 -0.000000
vn 0.000000 1.000000 -0.000001
vn 0.000000 1.000000 -0.000001
vn 0.000000 0.000000 -1.000000
vn 0.000000 0.000000 -1.000000
vn 0.000000 0.000000 -1.000000
vn 0.000000 0.000000 -1.000000
vn -0.866025 0.000000 -0.500000
vn -0.866025 0.000000 -0.500000
vn -0.866025 0.000000 -0.500000
vn -0.866025 0.000000 -0.500000
vn -0.866026 0.000000 0.500000
vn -0.866026 0.000000 0.500000
vn -0.866026 0.000000 0.500000
vn -0.866026 0.000000 0.500000
vn -0.000000 0.000000 1.000000
vn -0.000000 0.000000 1.000000
vn -0.000000 0.000000 1.000000
vn -0.000000 0.000000 1.000000
vn 0.866025 0.000000 0.500000
vn 0.866025 0.000000 0.500000
vn 0.866025 0.000000 0.500000
vn 0.866025 0.000000 0.500000
vn 0.866026 0.000000 -0.500000
vn 0.866026 0.000000 -0.500000
vn 0.866026 0.000000 -0.500000
vn 0.866026 0.000000 -0.500000
vn 0.000000 -0.000000 -1.000000
vn 0.000000 -0.000000 -1.000000
vn 0.000000 -0.000000 -1.000000
vn 0.000000 -0.000000 -1.000000
vn -0.866025 0.000000 -0.500000
vn -0.866025 0.000000 -0.500000
vn -0.866025 0.000000 -0.500000
vn -0.866025 0.000000 -0.500000
vn -0.866026 0.000000 0.500000
vn -0.866026 0.000000 0.500000
vn -0.866026 0.000000 0.500000
vn -0.866026 0.000000 0.500000
vn -0.000000 0.000000 1.000000
vn -0.000000 0.000000 1.000000
vn -0.000000 0.000000 1.000000
vn -0.000000 0.000000 1.000000
vn 0.866025 0.000000 0.500000
vn 0.866025 0.000000 0.500000
vn 0.866025 0.000000 0.500000
vn 0.866025 0.000000 0.500000
vn 0.866026 0.000000 -0.500000
vn 0.866026 0.000000 -0.500000
vn 0.866026 0.000000 -0.500000
vn 0.866026 0.000000 -0.500000
vn 0.000000 0.000000 -1.000000
vn 0.000000 0.000000 -1.000000
vn 0.000000 0.000000 -1.000000
vn 0.000000 0.000000 -1.000000
vn -0.866025 0.000000 -0.500000
vn -0.866025 0.000000 -0.500000
vn -0.866025 0.000000 -0.500000
vn -0.866025 0.000000 -0.500000
vn -0.866026 0.000000 0.500000
vn -0.866026 0.000000 0.500000
vn -0.866026 0.000000 0.500000
vn -0.866026 0.000000 0.500000
vn -0.000000 0.000000 1.000000
vn -0.000000 0.000000 1.000000
vn -0.000000 0.000000 1.000000
vn -0.000000 0.000000 1.000000
vn 0.866025 0.000000 0.500000
vn 0.866025 0.000000 0.500000
vn 0.866025 0.000000 0.500000
vn 0.866025 0.000000 0.500000
vn 0.866026 0.000000 -0.500000
vn 0.866026 0.000000 -0.500000
vn 0.866026 0.000000 -0.500000
vn 0.866026 0.000000 -0.500000
vn 0.030624 0.000000 -0.999531
vn 0.030624 0.000000 -0.999531
vn 0.030624 0.000000 -0.999531
vn 0.030624 0.000000 -0.999531
vn -0.866025 0.000000 -0.500000
vn -0.866025 0.000000 -0.500000
vn -0.866025 0.000000 -0.500000
vn -0.866025 0.000000 -0.500000
vn -0.866026 0.000000 0.500000
vn -0.866026 0.000000 0.500000
vn -0.866025 0.000000 0.500000
vn -0.866026 0.000000 0.500000
vn -0.000000 0.000000 1.000000
vn -0.000000 0.000000 1.000000
vn -0.000000 0.000000 1.000000
vn -0.000000 0.000000 1.000000
vn 0.866025 0.000000 0.500000
vn 0.866025 0.000000 0.500000
vn 0.866025 0.000000 0.500000
vn 0.866025 0.000000 0.500000
vn 0.866026 0.000000 -0.500000
vn 0.866026 0.000000 -0.500000
vn 0.866026 0.000000 -0.500000
vn 0.866026 0.000000 -0.500000
vn 0.000000 0.000000 -1.000000
vn 0.000000 0.000000 -1.000000
vn 0.000000 0.000000 -1.000000
vn 0.000000 0.000000 -1.000000
vn -0.866025 0.000000 -0.500000
vn -0.866025 0.000000 -0.500000
vn -0.866025 0.000000 -0.500000
vn -0.866025 0.000000 -0.500000
vn -0.866026 0.000000 0.500000
vn -0.866026 0.000000 0.500000
vn -0.866026 0.000000 0.500000
vn -0.866026 0.000000 0.500000
vn -0.000000 0.000000 1.000000
vn -0.000000 0.000000 1.000000
vn -0.000000 0.000000 1.000000
vn -0.000000 0.000000 1.000000
vn 0.866025 0.000000 0.500000
vn 0.866025 0.000000 0.500000
vn 0.866025 0.000000 0.500000
vn 0.866025 0.000000 0.500000
vn 0.866025 0.000000 -0.500000
vn 0.866025 0.000000 -0.500000
vn 0.866025 0.000000 -0.500000
vn 0.866025 0.000000 -0.500000
vn 0.030624 0.000000 -0.999531
vn 0.030624 0.000000 -0.999531
vn 0.030624 0.000000 -0.999531
vn 0.030624 0.000000 -0.999531
vn -0.866025 0.000000 -0.500000
vn -0.866025 0.000000 -0.500000
vn -0.866025 0.000000 -0.500000
vn -0.866025 0.000000 -0.500000
vn -0.866026 0.000000 0.500000
vn -0.866026 0.000000 0.500000
vn -0.866026 0.000000 0.500000
vn -0.866026 0.000000 0.500000
vn -0.000000 0.000000 1.000000
vn -0.000000 0.000000 1.000000
vn -0.000000 0.000000 1.000000
vn -0.000000 0.000000 1.000000
vn 0.866025 0.000000 0.500000
vn 0.866025 0.000000 0.500000
vn 0.866025 0.000000 0.500000
vn 0.866025 0.000000 0.500000
vn 0.866026 0.000000 -0.500000
vn 0.866026 0.000000 -0.500000
vn 0.866026 0.000000 -0.500000
vn 0.866026 0.000000 -0.500000
vn 0.000000 0.000000 -1.000000
vn 0.000000 0.000000 -1.000000
vn 0.000000 0.000000 -1.000000
vn 0.000000 0.000000 -1.000000
vn -0.866025 0.000000 -0.500000
vn -0.866025 0.000000 -0.500000
vn -0.866025 0.000000 -0.500000
vn -0.866025 0.000000 -0.500000
vn -0.866026 0.000000 0.500000
vn -0.866026 0.000000 0.500000
vn -0.866026 0.000000 0.500000
vn -0.866026 0.000000 0.500000
vn -0.000000 0.000000 1.000000
vn -0.000000 0.000000 1.000000
vn -0.000000 0.000000 1.000000
vn -0.000000 0.000000 1.000000
vn 0.866025 0.000000 0.500000
vn 0.866025 0.000000 0.500000
vn 0.866025 0.000000 0.500000
vn 0.866025 0.000000 0.500000
vn 0.866026 0.000000 -0.500000
vn 0.866026 0.000000 -0.500000
vn 0.866026 0.000000 -0.500000
vn 0.866026 0.000000 -0.500000
vn 0.000000 0.000000 -1.000000
vn 0.000000 0.000000 -1.000000
vn 0.000000 0.000000 -1.000000
vn 0.000000 0.000000 -1.000000
vn -0.866025 0.000000 -0.500000
vn -0.866025 0.000000 -0.500000
vn -0.866025 0.000000 -0.500000
vn -0.866025 0.000000 -0.500000
vn -0.866026 0.000000 0.500000
vn -0.866026 0.000000 0.500000
vn -0.866026 0.000000 0.500000
vn -0.866026 0.000000 0.500000
vn -0.000000 0.000000 1.000000
vn -0.000000 0.000000 1.000000
vn -0.000000 0.000000 1.000000
vn -0.000000 0.000000 1.000000
vn 0.866025 0.000000 0.500000
vn 0.866025 0.000000 0.500000
vn 0.866025 0.000000 0.500000
vn 0.866025 0.000000 0.500000
vn 0.866026 0.000000 -0.500000
vn 0.866026 0.000000 -0.500000
vn 0.866026 0.000000 -0.500000
vn 0.866026 0.000000 -0.500000
vn 0.000000 0.000000 -1.000000
vn 0.000000 0.000000 -1.000000
vn 0.000000 0.000000 -1.000000
vn 0.000000 0.000000 -1.000000
vn -0.866025 0.000000 -0.500000
vn -0.866025 0.000000 -0.500000
vn -0.866025 0.000000 -0.500000
vn -0.866025 0.000000 -0.500000
vn -0.866026 0.000000 0.500000
vn -0.866026 0.000000 0.500000
vn -0.866026 0.000000 0.500000
vn -0.866026 0.000000 0.500000
vn -0.000000 0.000000 1.000000
vn -0.000000 0.000000 1.000000
vn -0.000000 0.000000 1.000000
vn -0.000000 0.000000 1.000000
vn 0.866025 0.000000 0.500000
vn 0.866025 0.000000 0.500000
vn 0.866025 0.000000 0.500000
vn 0.866025 0.000000 0.500000
vn 0.866026 0.000000 -0.500000
vn 0.866026 0.000000 -0.500000
vn 0.866026 0.000000 -0.500000
vn 0.866026 0.000000 -0.500000
vn 0.000000 0.000000 -1.000000
vn 0.000000 0.000000 -1.000000
vn 0.000000 0.000000 -1.000000
vn 0.000000 0.000000 -1.000000
vn -0.866025 0.000000 -0.500000
vn -0.866025 0.000000 -0.500000
vn -0.866025 0.000000 -0.500000
vn -0.866025 0.000000 -0.500000
vn -0.866026 0.000000 0.500000
vn -0.866026 0.000000 0.500000
vn -0.866026 0.000000 0.500000
vn -0.866026 0.000000 0.500000
vn -0.000000 0.000000 1.000000
vn -0.000000 0.000000 1.000000
vn -0.000000 0.000000 1.000000
vn -0.000000 0.000000 1.000000
vn 0.866025 0.000000 0.500000
vn 0.866025 0.000000 0.500000
vn 0.866025 0.000000 0.500000
vn 0.866025 0.000000 0.500000
vn 0.866026 0.000000 -0.500000
vn 0.866026 0.000000 -0.500000
vn 0.866026 0.000000 -0.500000
vn 0.866026 0.000000 -0.500000
vn 0.000001 1.000000 -0.000006
vn 0.000000 0.000000 -0.000000
vn 0.000001 1.000000 -0.000006
vn 0.000001 1.000000 -0.000006
vn -0.000002 0.000000 -1.000000
vn -0.000002 0.000000 -1.000000
vn -0.000002 0.000000 -1.000000
vn -0.000002 0.000000 -1.000000
vn 0.000000 -0.000000 0.000000
vn 0.000000 -1.000000 0.000022
vn 0.000000 -1.000000 0.000022
vn 0.000000 -1.000000 0.000022
vn -0.866025 0.000000 0.500001
vn -0.866025 0.000000 0.500001
vn -0.866025 0.000000 0.500001
vn -0.866025 0.000000 0.500001
vn 0.000001 1.000000 -0.000054
vn 0.000000 0.000000 -0.000000
vn 0.000001 1.000000 -0.000054
vn 0.000001 1.000000 -0.000054
vn -0.000005 0.000000 -1.000000
vn -0.000005 0.000000 -1.000000
vn -0.000005 0.000000 -1.000000
vn -0.000005 0.000000 -1.000000
vn 0.000000 -0.000000 -0.000000
vn 0.000000 -1.000000 -0.000024
vn 0.000000 -1.000000 -0.000024
vn 0.000000 -1.000000 -0.000024
vn -0.866025 0.000000 0.500001
vn -0.866025 0.000000 0.500001
vn -0.866025 0.000000 0.500001
vn -0.866025 0.000000 0.500001
s 1
g PLAG_SimpleBldg_11
usemtl lambert2SG
f 5/1/1 4/2/2 3/3/3 6/4/4
f 2/5/5 1/6/6 6/4/4 3/3/3
s off
f 7/7/7 8/8/8 14/9/9 13/10/10
f 8/11/11 9/12/12 15/13/13 14/14/14
f 9/15/15 10/16/16 16/17/17 15/18/18
f 10/19/19 11/20/20 17/21/21 16/22/22
f 11/23/23 12/24/24 18/25/25 17/26/26
f 12/27/27 7/28/28 13/29/29 18/30/30
s 2
f 15/31/31 16/32/32 17/33/33 18/34/34
f 15/31/31 18/34/34 13/35/35 14/36/36
s off
f 19/37/37 20/38/38 26/39/39 25/40/40
f 20/41/41 21/42/42 27/43/43 26/44/44
f 21/45/45 22/46/46 28/47/47 27/48/48
f 22/49/49 23/50/50 29/51/51 28/52/52
f 23/53/53 24/54/54 30/55/55 29/56/56
f 24/57/57 19/58/58 25/59/59 30/60/60
f 31/61/61 32/62/62 38/63/63 37/64/64
f 32/65/65 33/66/66 39/67/67 38/68/68
f 33/69/69 34/70/70 40/71/71 39/72/72
f 34/73/73 35/74/74 41/75/75 40/76/76
f 35/77/77 36/78/78 42/79/79 41/80/80
f 36/81/81 31/82/82 37/83/83 42/84/84
f 43/85/85 44/86/86 50/87/87 49/88/88
f 44/89/89 45/90/90 51/91/91 50/92/92
f 45/93/93 46/94/94 52/95/95 51/96/96
f 46/97/97 47/98/98 53/99/99 52/100/100
f 47/101/101 48/102/102 54/103/103 53/104/104
f 48/105/105 43/106/106 49/107/107 54/108/108
f 139/109/109 140/110/110 141/111/111 142/112/112
f 56/113/113 57/114/114 63/115/115 62/116/116
f 57/117/117 58/118/118 64/119/119 63/120/120
f 58/121/121 59/122/122 65/123/123 64/124/124
f 59/125/125 60/126/126 66/127/127 65/128/128
f 60/129/129 55/130/130 61/131/131 66/132/132
f 67/133/133 68/134/134 74/135/135 73/136/136
f 68/137/137 69/138/138 75/139/139 74/140/140
f 69/141/141 70/142/142 76/143/143 75/144/144
f 70/145/145 71/146/146 77/147/147 76/148/148
f 71/149/149 72/150/150 78/151/151 77/152/152
f 72/153/153 67/154/154 73/155/155 78/156/156
f 143/157/157 144/158/158 145/159/159 146/160/160
f 80/161/161 81/162/162 87/163/163 86/164/164
f 81/165/165 82/166/166 88/167/167 87/168/168
f 82/169/169 83/170/170 89/171/171 88/172/172
f 83/173/173 84/174/174 90/175/175 89/176/176
f 84/177/177 79/178/178 85/179/179 90/180/180
f 91/181/181 92/182/182 98/183/183 97/184/184
f 92/185/185 93/186/186 99/187/187 98/188/188
f 93/189/189 94/190/190 100/191/191 99/192/192
f 94/193/193 95/194/194 101/195/195 100/196/196
f 95/197/197 96/198/198 102/199/199 101/200/200
f 96/201/201 91/202/202 97/203/203 102/204/204
f 103/205/205 104/206/206 110/207/207 109/208/208
f 104/209/209 105/210/210 111/211/211 110/212/212
f 105/213/213 106/214/214 112/215/215 111/216/216
f 106/217/217 107/218/218 113/219/219 112/220/220
f 107/221/221 108/222/222 114/223/223 113/224/224
f 108/225/225 103/226/226 109/227/227 114/228/228
f 115/229/229 116/230/230 122/231/231 121/232/232
f 116/233/233 117/234/234 123/235/235 122/236/236
f 117/237/237 118/238/238 124/239/239 123/240/240
f 118/241/241 119/242/242 125/243/243 124/244/244
f 119/245/245 120/246/246 126/247/247 125/248/248
f 120/249/249 115/250/250 121/251/251 126/252/252
f 127/253/253 128/254/254 134/255/255 133/256/256
f 128/257/257 129/258/258 135/259/259 134/260/260
f 129/261/261 130/262/262 136/263/263 135/264/264
f 130/265/265 131/266/266 137/267/267 136/268/268
f 131/269/269 132/270/270 138/271/271 137/272/272
f 132/273/273 127/274/274 133/275/275 138/276/276
f 55//277 56//278 140//279 139//280
f 56//281 62//282 141//283 140//284
f 62//285 61//286 142//287 141//288
f 61//289 55//290 139//291 142//292
f 79//293 80//294 144//295 143//296
f 80//297 86//298 145//299 144//300
f 86//301 85//302 146//303 145//304
f 85//305 79//306 143//307 146//308
