# This file uses meters as units for non-parametric coordinates.

mtllib PLAG_Hex_Bldg_08.mtl
g default
v 50.000023 600.000000 -86.602531
v -49.999985 600.000000 -86.602554
v -100.000000 600.000000 -0.000015
v -50.000011 600.000000 86.602539
v 49.999996 600.000000 86.602547
v 100.000000 600.000000 0.000000
v 50.000023 700.000000 -86.602531
v -49.999985 700.000000 -86.602554
v -100.000000 700.000000 -0.000015
v -50.000011 700.000000 86.602539
v 49.999996 700.000000 86.602547
v 100.000000 700.000000 0.000000
v 50.000023 500.000000 -86.602531
v -49.999985 500.000000 -86.602554
v -100.000000 500.000000 -0.000015
v -50.000011 500.000000 86.602539
v 49.999996 500.000000 86.602547
v 100.000000 500.000000 0.000000
v 50.000023 600.000000 -86.602531
v -49.999985 600.000000 -86.602554
v -100.000000 600.000000 -0.000015
v -50.000011 600.000000 86.602539
v 49.999996 600.000000 86.602547
v 100.000000 600.000000 0.000000
v 50.000023 700.000000 -86.602531
v -49.999985 700.000000 -86.602554
v -100.000000 700.000000 -0.000015
v -50.000011 700.000000 86.602539
v 49.999996 700.000000 86.602547
v 100.000000 700.000000 0.000000
v 50.000023 800.000000 -86.602531
v -49.999985 800.000000 -86.602554
v -100.000000 800.000000 -0.000015
v -50.000011 800.000000 86.602539
v 49.999996 800.000000 86.602547
v 100.000000 800.000000 0.000000
v 50.000023 0.000000 -86.602531
v -49.999985 0.000000 -86.602554
v -100.000000 0.000000 -0.000015
v -50.000011 0.000000 86.602539
v 49.999996 0.000000 86.602547
v 100.000000 0.000000 0.000000
v 50.000023 100.000000 -86.602531
v -49.999985 100.000000 -86.602554
v -100.000000 100.000000 -0.000015
v -50.000011 100.000000 86.602539
v 49.999996 100.000000 86.602547
v 100.000000 100.000000 0.000000
v 50.000023 100.000000 -86.602531
v -49.999985 100.000000 -86.602554
v -100.000000 100.000000 -0.000015
v -50.000011 100.000000 86.602539
v 49.999996 100.000000 86.602547
v 100.000000 100.000000 0.000000
v 50.000023 200.000000 -86.602531
v -49.999985 200.000000 -86.602554
v -100.000000 200.000000 -0.000015
v -50.000011 200.000000 86.602539
v 49.999996 200.000000 86.602547
v 100.000000 200.000000 0.000000
v 50.000023 200.000000 -86.602531
v -49.999985 200.000000 -86.602554
v -100.000000 200.000000 -0.000015
v -50.000011 200.000000 86.602539
v 49.999996 200.000000 86.602547
v 100.000000 200.000000 0.000000
v 50.000023 300.000000 -86.602531
v -49.999985 300.000000 -86.602554
v -100.000000 300.000000 -0.000015
v -50.000011 300.000000 86.602539
v 49.999996 300.000000 86.602547
v 100.000000 300.000000 0.000000
v 50.000023 400.000000 -86.602531
v -49.999985 400.000000 -86.602554
v -100.000000 400.000000 -0.000015
v -50.000011 400.000000 86.602539
v 49.999996 400.000000 86.602547
v 100.000000 400.000000 0.000000
v 50.000023 500.000000 -86.602531
v -49.999985 500.000000 -86.602554
v -100.000000 500.000000 -0.000015
v -50.000011 500.000000 86.602539
v 49.999996 500.000000 86.602547
v 100.000000 500.000000 0.000000
v 50.000023 300.000000 -86.602531
v -49.999985 300.000000 -86.602554
v -100.000000 300.000000 -0.000015
v -50.000011 300.000000 86.602539
v 49.999996 300.000000 86.602547
v 100.000000 300.000000 0.000000
v 50.000023 400.000000 -86.602531
v -49.999985 400.000000 -86.602554
v -100.000000 400.000000 -0.000015
v -50.000011 400.000000 86.602539
v 49.999996 400.000000 86.602547
v 100.000000 400.000000 0.000000
vt 0.178520 0.012439
vt 0.178520 0.012438
vt 0.985352 0.012438
vt 0.178521 0.012438
vt 0.178521 0.012438
vt 0.985352 0.012438
vt 0.985353 0.819269
vt 0.985352 0.819269
vt 0.178520 0.819269
vt 0.985352 0.819269
vt 0.985351 0.819270
vt 0.178522 0.819269
vt 0.178520 0.012439
vt 0.985352 0.819269
vt 0.178520 0.012439
vt 0.985352 0.819270
vt 0.985352 0.012438
vt 0.178521 0.819270
vt 0.985352 0.012439
vt 0.178521 0.819269
vt 0.985352 0.012438
vt 0.178520 0.819269
vt 0.985351 0.012439
vt 0.178522 0.819270
vt 0.178520 0.012439
vt 0.985352 0.012438
vt 0.985352 0.819269
vt 0.178522 0.819270
vt 0.178520 0.012438
vt 0.985352 0.012438
vt 0.985352 0.819270
vt 0.178520 0.819269
vt 0.178520 0.012439
vt 0.985352 0.012439
vt 0.985352 0.819269
vt 0.178520 0.819269
vt 0.178521 0.012438
vt 0.985352 0.012438
vt 0.985351 0.819270
vt 0.178521 0.819269
vt 0.178521 0.012438
vt 0.985352 0.012438
vt 0.985352 0.819269
vt 0.178521 0.819270
vt 0.178520 0.012439
vt 0.985351 0.012439
vt 0.985353 0.819269
vt 0.178522 0.819269
vt 0.178520 0.012439
vt 0.985352 0.012438
vt 0.985352 0.819269
vt 0.178522 0.819270
vt 0.178520 0.012438
vt 0.985352 0.012438
vt 0.985352 0.819270
vt 0.178520 0.819269
vt 0.178520 0.012439
vt 0.985352 0.012439
vt 0.985352 0.819269
vt 0.178520 0.819269
vt 0.178521 0.012438
vt 0.985352 0.012438
vt 0.985351 0.819270
vt 0.178521 0.819269
vt 0.178521 0.012438
vt 0.985352 0.012438
vt 0.985352 0.819269
vt 0.178521 0.819270
vt 0.178520 0.012439
vt 0.985351 0.012439
vt 0.985353 0.819269
vt 0.178522 0.819269
vt 0.013057 0.899542
vt 0.063047 0.812957
vt 0.163027 0.812957
vt 0.213016 0.899542
vt 0.163027 0.986127
vt 0.063047 0.986127
vt 0.178520 0.012439
vt 0.985352 0.012438
vt 0.985352 0.819269
vt 0.178522 0.819270
vt 0.178520 0.012438
vt 0.985352 0.012438
vt 0.985352 0.819270
vt 0.178520 0.819269
vt 0.178520 0.012439
vt 0.985352 0.012439
vt 0.985352 0.819269
vt 0.178520 0.819269
vt 0.178521 0.012438
vt 0.985352 0.012438
vt 0.985351 0.819270
vt 0.178521 0.819269
vt 0.178521 0.012438
vt 0.985352 0.012438
vt 0.985352 0.819269
vt 0.178521 0.819270
vt 0.178520 0.012439
vt 0.985351 0.012439
vt 0.985353 0.819269
vt 0.178522 0.819269
vt 0.163027 0.986127
vt 0.063047 0.986127
vt 0.013057 0.899542
vt 0.213016 0.899542
vt 0.063047 0.812957
vt 0.163027 0.812957
vt 0.178520 0.012439
vt 0.985352 0.012438
vt 0.985352 0.819269
vt 0.178522 0.819270
vt 0.178520 0.012438
vt 0.985352 0.012438
vt 0.985352 0.819270
vt 0.178520 0.819269
vt 0.178520 0.012439
vt 0.985352 0.012439
vt 0.985352 0.819269
vt 0.178520 0.819269
vt 0.178521 0.012438
vt 0.985352 0.012438
vt 0.985351 0.819270
vt 0.178521 0.819269
vt 0.178521 0.012438
vt 0.985352 0.012438
vt 0.985352 0.819269
vt 0.178521 0.819270
vt 0.178520 0.012439
vt 0.985351 0.012439
vt 0.985353 0.819269
vt 0.178522 0.819269
vt 0.178520 0.012439
vt 0.985352 0.012438
vt 0.985352 0.819269
vt 0.178522 0.819270
vt 0.178520 0.012438
vt 0.985352 0.012438
vt 0.985352 0.819270
vt 0.178520 0.819269
vt 0.178520 0.012439
vt 0.985352 0.012439
vt 0.985352 0.819269
vt 0.178520 0.819269
vt 0.178521 0.012438
vt 0.985352 0.012438
vt 0.985351 0.819270
vt 0.178521 0.819269
vt 0.178521 0.012438
vt 0.985352 0.012438
vt 0.985352 0.819269
vt 0.178521 0.819270
vt 0.178520 0.012439
vt 0.985351 0.012439
vt 0.985353 0.819269
vt 0.178522 0.819269
vt 0.178520 0.012439
vt 0.985352 0.012438
vt 0.985352 0.819269
vt 0.178522 0.819270
vt 0.178520 0.012438
vt 0.985352 0.012438
vt 0.985352 0.819270
vt 0.178520 0.819269
vt 0.178520 0.012439
vt 0.985352 0.012439
vt 0.985352 0.819269
vt 0.178520 0.819269
vt 0.178521 0.012438
vt 0.985352 0.012438
vt 0.985351 0.819270
vt 0.178521 0.819269
vt 0.178521 0.012438
vt 0.985352 0.012438
vt 0.985352 0.819269
vt 0.178521 0.819270
vt 0.178520 0.012439
vt 0.985351 0.012439
vt 0.985353 0.819269
vt 0.178522 0.819269
vt 0.178520 0.012439
vt 0.985352 0.012438
vt 0.985352 0.819269
vt 0.178522 0.819270
vt 0.178520 0.012438
vt 0.985352 0.012438
vt 0.985352 0.819270
vt 0.178520 0.819269
vt 0.178520 0.012439
vt 0.985352 0.012439
vt 0.985352 0.819269
vt 0.178520 0.819269
vt 0.178521 0.012438
vt 0.985352 0.012438
vt 0.985351 0.819270
vt 0.178521 0.819269
vt 0.178521 0.012438
vt 0.985352 0.012438
vt 0.985352 0.819269
vt 0.178521 0.819270
vt 0.178520 0.012439
vt 0.985351 0.012439
vt 0.985353 0.819269
vt 0.178522 0.819269
vn 0.000000 0.000000 -1.000000
vn 0.000000 0.000000 -1.000000
vn 0.000000 0.000000 -1.000000
vn 0.000000 0.000000 -1.000000
vn -0.866025 0.000000 -0.500000
vn -0.866025 0.000000 -0.500000
vn -0.866025 0.000000 -0.500000
vn -0.866025 0.000000 -0.500000
vn -0.866026 0.000000 0.500000
vn -0.866026 0.000000 0.500000
vn -0.866026 0.000000 0.500000
vn -0.866026 0.000000 0.500000
vn -0.000000 0.000000 1.000000
vn -0.000000 0.000000 1.000000
vn -0.000000 0.000000 1.000000
vn -0.000000 0.000000 1.000000
vn 0.866025 0.000000 0.500000
vn 0.866025 0.000000 0.500000
vn 0.866025 0.000000 0.500000
vn 0.866025 0.000000 0.500000
vn 0.866026 0.000000 -0.500000
vn 0.866026 0.000000 -0.500000
vn 0.866026 0.000000 -0.500000
vn 0.866026 0.000000 -0.500000
vn 0.000000 0.000000 -1.000000
vn 0.000000 0.000000 -1.000000
vn 0.000000 0.000000 -1.000000
vn 0.000000 0.000000 -1.000000
vn -0.866025 0.000000 -0.500000
vn -0.866025 0.000000 -0.500000
vn -0.866025 0.000000 -0.500000
vn -0.866025 0.000000 -0.500000
vn -0.866026 0.000000 0.500000
vn -0.866026 0.000000 0.500000
vn -0.866026 0.000000 0.500000
vn -0.866026 0.000000 0.500000
vn -0.000000 0.000000 1.000000
vn -0.000000 0.000000 1.000000
vn -0.000000 0.000000 1.000000
vn -0.000000 0.000000 1.000000
vn 0.866025 0.000000 0.500000
vn 0.866025 0.000000 0.500000
vn 0.866025 0.000000 0.500000
vn 0.866025 0.000000 0.500000
vn 0.866026 0.000000 -0.500000
vn 0.866026 0.000000 -0.500000
vn 0.866026 0.000000 -0.500000
vn 0.866026 0.000000 -0.500000
vn 0.000000 0.000000 -1.000000
vn 0.000000 0.000000 -1.000000
vn 0.000000 0.000000 -1.000000
vn 0.000000 0.000000 -1.000000
vn -0.866025 0.000000 -0.500000
vn -0.866025 0.000000 -0.500000
vn -0.866025 0.000000 -0.500000
vn -0.866025 0.000000 -0.500000
vn -0.866026 0.000000 0.500000
vn -0.866026 0.000000 0.500000
vn -0.866026 0.000000 0.500000
vn -0.866026 0.000000 0.500000
vn -0.000000 0.000000 1.000000
vn -0.000000 0.000000 1.000000
vn -0.000000 0.000000 1.000000
vn -0.000000 0.000000 1.000000
vn 0.866025 0.000000 0.500000
vn 0.866025 0.000000 0.500000
vn 0.866025 0.000000 0.500000
vn 0.866025 0.000000 0.500000
vn 0.866026 0.000000 -0.500000
vn 0.866026 0.000000 -0.500000
vn 0.866026 0.000000 -0.500000
vn 0.866026 0.000000 -0.500000
vn 0.000000 1.000000 0.000000
vn 0.000000 1.000000 0.000000
vn 0.000000 1.000000 0.000000
vn 0.000000 1.000000 0.000000
vn 0.000000 1.000000 0.000000
vn 0.000000 1.000000 0.000000
vn 0.000000 0.000000 -1.000000
vn 0.000000 0.000000 -1.000000
vn 0.000000 0.000000 -1.000000
vn 0.000000 0.000000 -1.000000
vn -0.866025 0.000000 -0.500000
vn -0.866025 0.000000 -0.500000
vn -0.866025 0.000000 -0.500000
vn -0.866025 0.000000 -0.500000
vn -0.866026 0.000000 0.500000
vn -0.866026 0.000000 0.500000
vn -0.866026 0.000000 0.500000
vn -0.866026 0.000000 0.500000
vn -0.000000 0.000000 1.000000
vn -0.000000 0.000000 1.000000
vn -0.000000 0.000000 1.000000
vn -0.000000 0.000000 1.000000
vn 0.866025 0.000000 0.500000
vn 0.866025 0.000000 0.500000
vn 0.866025 0.000000 0.500000
vn 0.866025 0.000000 0.500000
vn 0.866026 0.000000 -0.500000
vn 0.866026 0.000000 -0.500000
vn 0.866026 0.000000 -0.500000
vn 0.866026 0.000000 -0.500000
vn 0.000000 -1.000000 0.000000
vn 0.000000 -1.000000 0.000000
vn 0.000000 -1.000000 0.000000
vn 0.000000 -1.000000 0.000000
vn 0.000000 -1.000000 0.000000
vn 0.000000 -1.000000 0.000000
vn 0.000000 0.000000 -1.000000
vn 0.000000 0.000000 -1.000000
vn 0.000000 0.000000 -1.000000
vn 0.000000 0.000000 -1.000000
vn -0.866025 0.000000 -0.500000
vn -0.866025 0.000000 -0.500000
vn -0.866025 0.000000 -0.500000
vn -0.866025 0.000000 -0.500000
vn -0.866026 0.000000 0.500000
vn -0.866026 0.000000 0.500000
vn -0.866026 0.000000 0.500000
vn -0.866026 0.000000 0.500000
vn -0.000000 0.000000 1.000000
vn -0.000000 0.000000 1.000000
vn -0.000000 0.000000 1.000000
vn -0.000000 0.000000 1.000000
vn 0.866025 0.000000 0.500000
vn 0.866025 0.000000 0.500000
vn 0.866025 0.000000 0.500000
vn 0.866025 0.000000 0.500000
vn 0.866026 0.000000 -0.500000
vn 0.866026 0.000000 -0.500000
vn 0.866026 0.000000 -0.500000
vn 0.866026 0.000000 -0.500000
vn 0.000000 0.000000 -1.000000
vn 0.000000 0.000000 -1.000000
vn 0.000000 0.000000 -1.000000
vn 0.000000 0.000000 -1.000000
vn -0.866025 0.000000 -0.500000
vn -0.866025 0.000000 -0.500000
vn -0.866025 0.000000 -0.500000
vn -0.866025 0.000000 -0.500000
vn -0.866026 0.000000 0.500000
vn -0.866026 0.000000 0.500000
vn -0.866026 0.000000 0.500000
vn -0.866026 0.000000 0.500000
vn -0.000000 0.000000 1.000000
vn -0.000000 0.000000 1.000000
vn -0.000000 0.000000 1.000000
vn -0.000000 0.000000 1.000000
vn 0.866025 0.000000 0.500000
vn 0.866025 0.000000 0.500000
vn 0.866025 0.000000 0.500000
vn 0.866025 0.000000 0.500000
vn 0.866026 0.000000 -0.500000
vn 0.866026 0.000000 -0.500000
vn 0.866026 0.000000 -0.500000
vn 0.866026 0.000000 -0.500000
vn 0.000000 0.000000 -1.000000
vn 0.000000 0.000000 -1.000000
vn 0.000000 0.000000 -1.000000
vn 0.000000 0.000000 -1.000000
vn -0.866025 0.000000 -0.500000
vn -0.866025 0.000000 -0.500000
vn -0.866025 0.000000 -0.500000
vn -0.866025 0.000000 -0.500000
vn -0.866026 0.000000 0.500000
vn -0.866026 0.000000 0.500000
vn -0.866026 0.000000 0.500000
vn -0.866026 0.000000 0.500000
vn -0.000000 0.000000 1.000000
vn -0.000000 0.000000 1.000000
vn -0.000000 0.000000 1.000000
vn -0.000000 0.000000 1.000000
vn 0.866025 0.000000 0.500000
vn 0.866025 0.000000 0.500000
vn 0.866025 0.000000 0.500000
vn 0.866025 0.000000 0.500000
vn 0.866026 0.000000 -0.500000
vn 0.866026 0.000000 -0.500000
vn 0.866026 0.000000 -0.500000
vn 0.866026 0.000000 -0.500000
vn 0.000000 0.000000 -1.000000
vn 0.000000 0.000000 -1.000000
vn 0.000000 0.000000 -1.000000
vn 0.000000 0.000000 -1.000000
vn -0.866025 0.000000 -0.500000
vn -0.866025 0.000000 -0.500000
vn -0.866025 0.000000 -0.500000
vn -0.866025 0.000000 -0.500000
vn -0.866026 0.000000 0.500000
vn -0.866026 0.000000 0.500000
vn -0.866026 0.000000 0.500000
vn -0.866026 0.000000 0.500000
vn -0.000000 0.000000 1.000000
vn -0.000000 0.000000 1.000000
vn -0.000000 0.000000 1.000000
vn -0.000000 0.000000 1.000000
vn 0.866025 0.000000 0.500000
vn 0.866025 0.000000 0.500000
vn 0.866025 0.000000 0.500000
vn 0.866025 0.000000 0.500000
vn 0.866026 0.000000 -0.500000
vn 0.866026 0.000000 -0.500000
vn 0.866026 0.000000 -0.500000
vn 0.866026 0.000000 -0.500000
s off
g PLAG_Hex_Bldg_08
usemtl lambert2SG
f 1/1/1 2/21/2 8/8/3 7/24/4
f 2/2/5 3/3/6 9/16/7 8/22/8
f 3/15/9 4/19/10 10/10/11 9/9/12
f 4/4/13 5/17/14 11/11/15 10/20/16
f 5/5/17 6/6/18 12/14/19 11/18/20
f 6/13/21 1/23/22 7/7/23 12/12/24
f 13/25/25 14/26/26 20/27/27 19/28/28
f 14/29/29 15/30/30 21/31/31 20/32/32
f 15/33/33 16/34/34 22/35/35 21/36/36
f 16/37/37 17/38/38 23/39/39 22/40/40
f 17/41/41 18/42/42 24/43/43 23/44/44
f 18/45/45 13/46/46 19/47/47 24/48/48
f 25/49/49 26/50/50 32/51/51 31/52/52
f 26/53/53 27/54/54 33/55/55 32/56/56
f 27/57/57 28/58/58 34/59/59 33/60/60
f 28/61/61 29/62/62 35/63/63 34/64/64
f 29/65/65 30/66/66 36/67/67 35/68/68
f 30/69/69 25/70/70 31/71/71 36/72/72
s 1
f 33/73/73 34/74/74 35/75/75 36/76/76
f 33/73/73 36/76/76 31/77/77 32/78/78
s off
f 37/79/79 38/80/80 44/81/81 43/82/82
f 38/83/83 39/84/84 45/85/85 44/86/86
f 39/87/87 40/88/88 46/89/89 45/90/90
f 40/91/91 41/92/92 47/93/93 46/94/94
f 41/95/95 42/96/96 48/97/97 47/98/98
f 42/99/99 37/100/100 43/101/101 48/102/102
s 2
f 41/103/103 40/104/104 39/105/105 42/106/106
f 38/107/107 37/108/108 42/106/106 39/105/105
s off
f 49/109/109 50/110/110 56/111/111 55/112/112
f 50/113/113 51/114/114 57/115/115 56/116/116
f 51/117/117 52/118/118 58/119/119 57/120/120
f 52/121/121 53/122/122 59/123/123 58/124/124
f 53/125/125 54/126/126 60/127/127 59/128/128
f 54/129/129 49/130/130 55/131/131 60/132/132
f 61/133/133 62/134/134 68/135/135 67/136/136
f 62/137/137 63/138/138 69/139/139 68/140/140
f 63/141/141 64/142/142 70/143/143 69/144/144
f 64/145/145 65/146/146 71/147/147 70/148/148
f 65/149/149 66/150/150 72/151/151 71/152/152
f 66/153/153 61/154/154 67/155/155 72/156/156
f 73/157/157 74/158/158 80/159/159 79/160/160
f 74/161/161 75/162/162 81/163/163 80/164/164
f 75/165/165 76/166/166 82/167/167 81/168/168
f 76/169/169 77/170/170 83/171/171 82/172/172
f 77/173/173 78/174/174 84/175/175 83/176/176
f 78/177/177 73/178/178 79/179/179 84/180/180
f 85/181/181 86/182/182 92/183/183 91/184/184
f 86/185/185 87/186/186 93/187/187 92/188/188
f 87/189/189 88/190/190 94/191/191 93/192/192
f 88/193/193 89/194/194 95/195/195 94/196/196
f 89/197/197 90/198/198 96/199/199 95/200/200
f 90/201/201 85/202/202 91/203/203 96/204/204
