# This file uses meters as units for non-parametric coordinates.

mtllib PLAG_Platform.mtl
g default
v 750.000488 -100.000000 1439.976685
v -749.999756 -100.000000 1439.977051
v -1502.426880 -100.000000 -120.449379
v -754.852478 -100.000000 -1680.876221
v 745.148438 -100.000000 -1680.876221
v 356.276703 -850.000610 1038.598267
v -536.599243 -850.000610 1044.857544
v -889.691101 -850.000610 -8.211329
v -611.484619 -859.612549 -717.282654
v 542.836731 -850.000610 -839.082581
v 210.993469 -1389.517578 724.069641
v -499.928680 -1389.517578 467.334320
v -881.064819 -1389.517578 -338.007294
v -542.469177 -1389.517578 -998.081726
v 115.786011 -1381.714111 -927.506104
v 471.195404 -1389.517578 -338.007355
v 291.730865 -1953.365479 606.896057
v -33.023430 -1953.365479 569.110535
v -120.802200 -1953.365479 49.456715
v 209.816574 -1953.365479 -300.843323
v 479.155457 -1953.365479 -131.490036
v 518.395081 -1953.365479 359.555023
v -161.393921 -2555.952881 -110.445808
v -171.011292 -2555.952881 -110.445808
v -175.835434 -2555.952881 -120.449585
v -171.042389 -2555.952881 -130.453369
v -161.425018 -2555.952881 -130.453369
v -156.600876 -2555.952881 -120.449585
v 247.027222 -1722.740967 672.918091
v 486.376984 -1722.740967 6.994164
v 337.856537 -1722.740967 -652.565979
v -240.170807 -1722.740967 -842.056335
v -589.421814 -1722.740967 -239.114838
v -420.496429 -1722.740967 546.361206
v 367.637817 -1171.888184 884.228638
v 750.149658 -1171.888184 -87.086433
v 513.275024 -1129.529297 -878.441956
v -497.945892 -1171.888184 -975.657593
v -1034.425415 -1171.888184 -87.086220
v -566.064331 -1171.888184 884.228638
v -557.196289 -525.241455 1275.386841
v 634.294189 -525.241455 1275.385498
v 510.338470 -525.241455 -1221.863281
v -561.050354 -525.241455 -1203.588867
v -971.956787 -525.241455 35.899273
v -1153.351074 -100.000000 1439.977051
v -1905.777222 -100.000000 -120.449379
v -1375.011475 -525.241455 226.587936
v -960.882935 -525.241455 1059.016724
v -1354.202271 -814.401794 440.705292
v -1141.188721 -846.899719 1002.373779
v -733.352295 -1146.641846 926.467346
v -992.271851 -1146.641846 273.693665
v -1029.273071 -1146.641846 969.159729
v -1287.933350 -1146.641846 483.127441
v -880.954163 -1368.139160 624.080017
v -899.992676 -1368.139160 576.080933
v -902.734497 -1368.139160 613.628296
v -921.732910 -1368.139160 591.480652
v -1908.148438 -100.000000 -120.449379
v -990.780518 -100.000000 -1668.996948
v -966.772705 -525.241455 -1203.588867
v -1374.520020 -525.241455 -255.592804
v -1136.333008 -859.612549 -783.548523
v -1296.068970 -850.000610 -430.028442
v -900.880798 -1150.551514 -636.954651
v -918.111755 -1151.681641 -687.605164
v -1121.346191 -1000.971558 -615.915955
v -1040.606812 -978.318665 -774.546936
v 1124.559814 -97.544556 -951.930969
v 1738.932251 -97.544556 -120.449654
v 1427.317139 -484.744873 21.912367
v 1070.622070 -484.744873 -789.369995
v 1128.977905 -97.544556 1300.384033
v 1114.574829 -484.744873 1016.944885
v 971.503601 -780.451599 -670.585022
v 1377.871216 -780.451599 -6.640670
v 1111.504272 -1113.405273 -90.071022
v 940.135010 -1113.405273 -567.752075
v 934.140747 -780.451599 874.108887
v 827.845947 -1113.405273 582.681335
v 722.980469 -1561.094727 -74.689438
v 605.111328 -1314.764893 -609.982117
v 906.550293 -1291.329346 -390.785339
v 942.887146 -1353.169189 -83.056580
v 602.571716 -1336.665039 467.738800
v 769.683960 -1295.104614 363.758057
v 1110.521851 -255.905685 -1923.479126
v -1110.520996 -255.905685 -1923.479492
v -2221.042725 -255.905685 -0.000324
v -1110.521606 -255.905685 1923.479248
v 1110.521240 -255.905685 1923.479370
v 2221.042725 -255.905685 0.000007
v 1000.000488 0.000000 -1732.050659
v -999.999695 0.000000 -1732.051025
v -2000.000000 0.000000 -0.000298
v -1000.000244 0.000000 1732.050781
v 999.999939 0.000000 1732.050903
v 2000.000000 0.000000 0.000000
v -1974.250122 26.800003 -0.000295
v -987.125305 26.800003 1709.750732
v 987.125000 26.800003 1709.750854
v 1974.250122 26.800003 -0.000001
v 987.125549 26.800003 -1709.750610
v -987.124817 26.800003 -1709.750977
v -1889.758667 8.157791 -0.000285
v -944.879578 8.157791 1636.578979
v 944.879272 8.157791 1636.579102
v 1889.758667 8.157791 -0.000005
v 944.879822 8.157791 -1636.578979
v -944.879089 8.157791 -1636.579224
vt 0.790117 0.727648
vt 0.787001 0.822118
vt 0.707293 0.928021
vt 0.585807 0.970345
vt 0.497362 0.953167
vt 0.369518 0.763301
vt 0.734240 0.749181
vt 0.728083 0.807991
vt 0.669457 0.866199
vt 0.608605 0.887332
vt 0.518951 0.876373
vt 0.441333 0.847126
vt 0.432416 0.751588
vt 0.693385 0.752964
vt 0.673264 0.799059
vt 0.634404 0.840366
vt 0.597288 0.851179
vt 0.555213 0.842326
vt 0.522973 0.809245
vt 0.477345 0.749705
vt 0.661142 0.734598
vt 0.650032 0.753114
vt 0.613556 0.770938
vt 0.576021 0.778288
vt 0.546166 0.774141
vt 0.527036 0.750081
vt 0.516464 0.730906
vt 0.591835 0.729849
vt 0.591449 0.730437
vt 0.590706 0.730401
vt 0.589912 0.730414
vt 0.590393 0.730419
vt 0.589547 0.729632
vt 0.589567 0.729186
vt 0.832544 0.217773
vt 0.816079 0.217773
vt 0.807847 0.232032
vt 0.816079 0.246291
vt 0.832544 0.246291
vt 0.840777 0.232032
vt 0.497880 0.737185
vt 0.673206 0.742691
vt 0.525890 0.777150
vt 0.553938 0.809063
vt 0.584095 0.825877
vt 0.627242 0.814481
vt 0.658088 0.780318
vt 0.456686 0.758792
vt 0.712449 0.746003
vt 0.498375 0.807180
vt 0.524735 0.855509
vt 0.592977 0.862893
vt 0.653254 0.849564
vt 0.703655 0.803613
vt 0.757038 0.810418
vt 0.400224 0.760324
vt 0.760907 0.733257
vt 0.426019 0.857334
vt 0.516581 0.912921
vt 0.587578 0.927448
vt 0.688280 0.887898
vt 0.792733 0.847238
vt 0.728379 0.942735
vt 0.719572 0.893136
vt 0.755474 0.841588
vt 0.718688 0.872479
vt 0.737807 0.845384
vt 0.696820 0.853781
vt 0.721434 0.829362
vt 0.726273 0.841298
vt 0.714612 0.858820
vt 0.711791 0.844391
vt 0.712658 0.843509
vt 0.712617 0.844046
vt 0.712247 0.844732
vt 0.708336 0.951849
vt 0.597812 0.975892
vt 0.612804 0.939144
vt 0.677442 0.918517
vt 0.635369 0.912760
vt 0.657197 0.905644
vt 0.631985 0.895468
vt 0.633509 0.893846
vt 0.641626 0.902654
vt 0.632478 0.904886
vt 0.463954 0.918172
vt 0.405429 0.883556
vt 0.473744 0.892845
vt 0.368850 0.789450
vt 0.398543 0.795279
vt 0.462815 0.836460
vt 0.488684 0.854065
vt 0.483388 0.874219
vt 0.420933 0.789590
vt 0.448481 0.794255
vt 0.483822 0.817647
vt 0.506621 0.840163
vt 0.485776 0.839889
vt 0.473903 0.826466
vt 0.468752 0.789051
vt 0.463977 0.800575
vt 0.847966 0.971921
vt 0.849689 0.014356
vt 0.987387 0.062254
vt 0.985833 0.924519
vt 0.847869 0.971921
vt 0.849791 0.014356
vt 0.987478 0.062281
vt 0.985747 0.924548
vt 0.847911 0.971895
vt 0.849756 0.014329
vt 0.987447 0.062243
vt 0.985785 0.924511
vt 0.847886 0.971921
vt 0.849773 0.014356
vt 0.987462 0.062277
vt 0.985762 0.924543
vt 0.847893 0.971921
vt 0.849766 0.014356
vt 0.987455 0.062275
vt 0.985768 0.924541
vt 0.847928 0.971921
vt 0.849725 0.014356
vt 0.987419 0.062264
vt 0.985800 0.924531
vt 0.817841 0.107620
vt 0.761964 0.107620
vt 0.734025 0.059229
vt 0.845780 0.059229
vt 0.761964 0.010838
vt 0.817841 0.010838
vt 0.038387 0.358132
vt 0.229335 0.028404
vt 0.610361 0.028908
vt 0.800433 0.359136
vt 0.609491 0.688861
vt 0.228465 0.688361
vt 0.013137 0.358112
vt 0.216727 0.006528
vt 0.220598 0.013212
vt 0.020861 0.358102
vt 0.623003 0.007052
vt 0.619149 0.013746
vt 0.825682 0.359156
vt 0.817958 0.359166
vt 0.622099 0.710737
vt 0.618228 0.704053
vt 0.215823 0.710217
vt 0.219676 0.703523
vn 0.124411 -0.410843 0.903178
vn -0.079758 -0.455081 0.886871
vn -0.050240 -0.454217 0.889474
vn 0.122137 -0.488969 0.863708
vn -0.708122 -0.615943 0.345221
vn -0.708122 -0.615943 0.345221
vn -0.765840 -0.525831 0.370122
vn -0.786770 -0.487176 0.379014
vn -0.702832 -0.605691 -0.373049
vn -0.702832 -0.605691 -0.373049
vn -0.730160 -0.567490 -0.380555
vn -0.748680 -0.539399 -0.385392
vn -0.006787 -0.741100 -0.671360
vn 0.197262 -0.734197 -0.649648
vn 0.145018 -0.750135 -0.645188
vn -0.009157 -0.767817 -0.640604
vn 0.735978 -0.518718 -0.435050
vn 0.735978 -0.518718 -0.435050
vn 0.782905 -0.439240 -0.440600
vn 0.776715 -0.450635 -0.440048
vn 0.849248 -0.416618 0.324355
vn 0.849248 -0.416618 0.324355
vn 0.846675 -0.418790 0.328263
vn 0.846202 -0.419185 0.328976
vn 0.112510 -0.561781 0.819600
vn -0.038465 -0.472936 0.880257
vn -0.043557 -0.617434 0.785416
vn 0.111752 -0.588765 0.800542
vn -0.920978 0.110175 0.373714
vn -0.920978 0.110175 0.373714
vn -0.813614 -0.456792 0.359686
vn -0.916210 -0.115257 0.383765
vn -0.855826 0.275064 -0.438066
vn -0.855826 0.275064 -0.438066
vn -0.865912 0.174876 -0.468631
vn -0.860866 0.236556 -0.450501
vn -0.015196 -0.574271 -0.818525
vn 0.160955 -0.453204 -0.876755
vn 0.113409 0.290774 -0.950047
vn 0.022041 0.314768 -0.948913
vn 0.842067 -0.323344 -0.431708
vn 0.843677 -0.317218 -0.433107
vn 0.824951 -0.381010 -0.417479
vn 0.824951 -0.381009 -0.417479
vn 0.786731 -0.514468 0.341140
vn 0.797434 -0.497846 0.340952
vn 0.726068 -0.597704 0.339963
vn 0.726068 -0.597704 0.339963
vn -0.174646 -0.552889 0.814747
vn -0.186892 -0.505252 0.842491
vn -0.254609 -0.036555 0.966353
vn -0.229995 -0.091222 0.968907
vn -0.731440 -0.612562 0.299605
vn -0.745990 -0.594373 0.300366
vn -0.785009 -0.567960 0.247353
vn -0.687341 -0.700353 0.192529
vn -0.823723 -0.333804 -0.458317
vn -0.784726 -0.442046 -0.434512
vn -0.477098 -0.831819 -0.283647
vn -0.463754 -0.841139 -0.278240
vn 0.142449 -0.155512 -0.977509
vn 0.148286 -0.185830 -0.971328
vn 0.207832 -0.734299 -0.646228
vn 0.197580 -0.514860 -0.834195
vn 0.803752 -0.479644 -0.352029
vn 0.820009 -0.447635 -0.356663
vn 0.971336 0.037538 -0.234730
vn 0.935011 -0.009775 -0.354483
vn 0.836420 -0.485895 0.253591
vn 0.838330 -0.482331 0.254086
vn 0.920253 0.241173 0.308173
vn 0.932057 0.216759 0.290319
vn -0.124368 -0.499601 0.857282
vn -0.125364 -0.493447 0.860694
vn -0.075659 -0.738926 0.669525
vn -0.075659 -0.738926 0.669525
vn -0.668074 -0.733313 0.126213
vn -0.737358 -0.661367 0.137465
vn -0.984407 0.036352 0.172109
vn -0.984407 0.036352 0.172109
vn -0.477303 -0.789049 -0.386760
vn -0.434154 -0.832181 -0.344943
vn -0.707612 0.255667 -0.658726
vn -0.707612 0.255667 -0.658726
vn 0.281972 -0.769934 -0.572445
vn 0.308345 -0.736897 -0.601586
vn 0.452511 -0.489547 -0.745371
vn 0.452511 -0.489547 -0.745371
vn 0.924508 -0.360920 -0.122562
vn 0.821647 -0.562401 -0.092740
vn 0.686115 -0.724987 -0.060339
vn 0.686115 -0.724987 -0.060339
vn 0.818803 -0.234741 0.523887
vn 0.812961 -0.254508 0.523756
vn 0.440376 -0.805724 0.396077
vn 0.440376 -0.805724 0.396077
vn 0.000000 -1.000000 0.000000
vn 0.000000 -1.000000 0.000000
vn 0.000000 -1.000000 0.000000
vn 0.000000 -1.000000 0.000000
vn 0.000000 -1.000000 0.000000
vn 0.000000 -1.000000 0.000000
vn 0.598889 -0.778138 0.189297
vn 0.598889 -0.778138 0.189297
vn 0.629983 -0.717866 -0.296294
vn 0.629983 -0.717866 -0.296294
vn -0.911539 -0.085581 -0.402209
vn -0.914881 -0.048572 -0.400791
vn -0.899891 0.154290 0.407909
vn -0.742994 -0.036589 0.668297
vn -0.174204 -0.653406 -0.736691
vn -0.426432 -0.462632 -0.777256
vn -0.343955 -0.534161 -0.772248
vn -0.174204 -0.653406 -0.736691
vn -0.208472 -0.593223 0.777577
vn -0.224208 -0.468524 0.854527
vn -0.596191 -0.315924 -0.738071
vn -0.602443 -0.318396 -0.731906
vn 0.000000 -1.000000 0.000000
vn 0.000000 -1.000000 0.000000
vn 0.000000 -1.000000 0.000000
vn 0.000000 -1.000000 0.000000
vn 0.818454 -0.493872 -0.293640
vn 0.818454 -0.493872 -0.293640
vn 0.830322 -0.469386 -0.300402
vn 0.830583 -0.468828 -0.300553
vn -0.499045 -0.454516 0.737814
vn 0.012797 -0.395399 0.918420
vn -0.842543 -0.376342 0.385341
vn -0.586646 -0.437813 -0.681298
vn -0.586012 -0.439319 -0.680873
vn 0.923348 -0.115311 -0.366241
vn 0.923348 -0.115311 -0.366241
vn -0.378688 -0.834845 0.399537
vn 0.056463 -0.829005 0.556384
vn -0.549911 -0.779309 0.300460
vn -0.343265 -0.804574 -0.484593
vn -0.343265 -0.804574 -0.484593
vn 0.020280 -0.784268 -0.620091
vn -0.012371 -0.743851 -0.668231
vn -0.526237 -0.385408 0.757981
vn -0.314872 -0.372189 0.873116
vn -0.314872 -0.372189 0.873116
vn -0.449953 -0.383063 0.806725
vn 0.041773 -0.808786 -0.586618
vn -0.633013 -0.726703 -0.266828
vn -0.633013 -0.726703 -0.266828
vn -0.633013 -0.726703 -0.266828
vn -0.633013 -0.726703 -0.266828
vn -0.570922 -0.555884 0.604187
vn -0.540781 -0.638441 0.547676
vn 0.719756 -0.645156 0.256369
vn 0.719756 -0.645156 0.256369
vn 0.719756 -0.645156 0.256369
vn 0.719756 -0.645156 0.256369
vn -0.432349 -0.822665 0.369183
vn -0.432349 -0.822665 0.369183
vn -0.766010 -0.523542 -0.373004
vn -0.766010 -0.523542 -0.373004
vn 0.179668 -0.183253 -0.966508
vn 0.179668 -0.183253 -0.966508
vn 0.179668 -0.183253 -0.966508
vn 0.179668 -0.183253 -0.966508
vn 0.632827 -0.599665 -0.489830
vn 0.574578 -0.598377 -0.558395
vn 0.364299 -0.576209 0.731621
vn 0.386039 -0.492106 0.780260
vn 0.580905 -0.813963 -0.003800
vn 0.498736 -0.780662 -0.376603
vn 0.498736 -0.780662 -0.376603
vn 0.575001 -0.816445 -0.052827
vn 0.494484 -0.138124 -0.858142
vn 0.494484 -0.138124 -0.858142
vn 0.396672 -0.555180 0.731044
vn 0.362691 -0.617600 0.697873
vn 0.576638 -0.724304 0.377985
vn 0.576637 -0.724304 0.377986
vn 0.467586 -0.585520 -0.662216
vn -0.964800 0.019610 0.262253
vn -0.964800 0.019610 0.262253
vn -0.964800 0.019610 0.262253
vn -0.964800 0.019610 0.262253
vn 0.467984 -0.653977 -0.594394
vn 0.467985 -0.653977 -0.594394
vn 0.467985 -0.653977 -0.594394
vn 0.467984 -0.653977 -0.594394
vn 0.820519 -0.510495 -0.257185
vn 0.820519 -0.510495 -0.257185
vn 0.820519 -0.510495 -0.257185
vn 0.820519 -0.510495 -0.257185
vn -0.945609 -0.140692 -0.293307
vn -0.945609 -0.140692 -0.293307
vn -0.945609 -0.140692 -0.293307
vn -0.945609 -0.140692 -0.293307
vn 0.748945 -0.571558 0.335265
vn 0.748945 -0.571558 0.335265
vn 0.748945 -0.571558 0.335265
vn 0.748945 -0.571558 0.335265
vn 0.452088 -0.724232 0.520678
vn 0.452088 -0.724232 0.520678
vn 0.452088 -0.724232 0.520678
vn 0.452088 -0.724232 0.520678
vn 0.000000 0.598997 -0.800752
vn 0.000000 0.598997 -0.800752
vn 0.000000 0.598997 -0.800752
vn 0.000000 0.598997 -0.800752
vn -0.693471 0.598997 -0.400376
vn -0.693471 0.598997 -0.400376
vn -0.693471 0.598997 -0.400376
vn -0.693471 0.598997 -0.400376
vn -0.693471 0.598997 0.400375
vn -0.693471 0.598997 0.400375
vn -0.693471 0.598997 0.400375
vn -0.693471 0.598997 0.400375
vn -0.000000 0.598997 0.800752
vn -0.000000 0.598997 0.800752
vn -0.000000 0.598997 0.800752
vn -0.000000 0.598997 0.800752
vn 0.693471 0.598997 0.400376
vn 0.693471 0.598997 0.400376
vn 0.693471 0.598997 0.400376
vn 0.693471 0.598997 0.400376
vn 0.693471 0.598997 -0.400376
vn 0.693471 0.598997 -0.400376
vn 0.693471 0.598997 -0.400376
vn 0.693471 0.598997 -0.400376
vn 0.000000 -1.000000 0.000000
vn 0.000000 -1.000000 0.000000
vn 0.000000 -1.000000 0.000000
vn 0.000000 -1.000000 0.000000
vn 0.000000 -1.000000 0.000000
vn 0.000000 -1.000000 0.000000
vn 0.000000 1.000000 0.000000
vn 0.000000 1.000000 0.000000
vn 0.000000 1.000000 0.000000
vn 0.000000 1.000000 0.000000
vn 0.000000 1.000000 0.000000
vn 0.000000 1.000000 0.000000
vn -0.665706 0.639621 0.384345
vn -0.665706 0.639621 0.384345
vn -0.665706 0.639621 0.384345
vn -0.665706 0.639621 0.384345
vn -0.000000 0.639621 0.768691
vn -0.000000 0.639621 0.768691
vn -0.000000 0.639621 0.768691
vn -0.000000 0.639621 0.768691
vn 0.665706 0.639621 0.384345
vn 0.665706 0.639621 0.384345
vn 0.665706 0.639621 0.384345
vn 0.665706 0.639621 0.384345
vn 0.665706 0.639621 -0.384345
vn 0.665706 0.639621 -0.384345
vn 0.665706 0.639621 -0.384345
vn 0.665706 0.639621 -0.384345
vn 0.000000 0.639621 -0.768691
vn 0.000000 0.639621 -0.768691
vn 0.000000 0.639621 -0.768691
vn 0.000000 0.639621 -0.768691
vn -0.665705 0.639621 -0.384345
vn -0.665705 0.639621 -0.384345
vn -0.665705 0.639621 -0.384345
vn -0.665705 0.639621 -0.384345
vn 0.213810 0.969044 -0.123443
vn 0.213810 0.969044 -0.123443
vn 0.213810 0.969044 -0.123443
vn 0.213810 0.969044 -0.123443
vn 0.000000 0.969044 -0.246887
vn 0.000000 0.969044 -0.246887
vn 0.000000 0.969044 -0.246887
vn 0.000000 0.969044 -0.246887
vn -0.213810 0.969044 -0.123443
vn -0.213810 0.969044 -0.123443
vn -0.213810 0.969044 -0.123443
vn -0.213810 0.969044 -0.123443
vn -0.213810 0.969045 0.123443
vn -0.213810 0.969045 0.123443
vn -0.213810 0.969044 0.123443
vn -0.213810 0.969045 0.123443
vn -0.000000 0.969044 0.246887
vn -0.000000 0.969044 0.246887
vn -0.000000 0.969044 0.246887
vn -0.000000 0.969044 0.246887
vn 0.213810 0.969044 0.123443
vn 0.213810 0.969044 0.123443
vn 0.213810 0.969044 0.123443
vn 0.213810 0.969044 0.123443
s 1
g PLAG_Platform
usemtl initialShadingGroup
f 1/1/1 2/2/2 41/55/3 42/57/4
f 46/62/5 47/63/6 48/64/7 49/65/8
s 3
f 60/76/9 61/77/10 62/78/11 63/79/12
s 4
f 4/4/13 5/5/14 43/59/15 44/60/16
s 5
f 70/86/17 71/87/18 72/58/19 73/88/20
s 6
f 71/87/21 74/89/22 75/90/23 72/58/24
s 1
f 6/7/25 7/8/26 40/54/27 35/49/28
s 7
f 7/8/29 8/9/30 39/53/31 40/54/32
s 8
f 8/9/33 9/10/34 38/52/35 39/53/36
s 4
f 9/10/37 10/11/38 37/51/39 38/52/40
s 5
f 76/93/41 77/12/42 78/91/43 79/92/44
s 6
f 77/12/45 80/94/46 81/95/47 78/91/48
s 1
f 11/14/49 12/15/50 34/47/51 29/42/52
s 7
f 12/15/53 13/16/54 33/46/55 34/47/56
s 8
f 13/16/57 14/17/58 32/45/59 33/46/60
s 4
f 14/17/61 15/18/62 31/44/63 32/45/64
s 9
f 15/18/65 16/19/66 30/43/67 31/44/68
s 10
f 16/19/69 11/20/70 29/41/71 30/43/72
s 1
f 17/21/73 18/22/74 24/29/75 23/28/76
s 7
f 18/22/77 19/23/78 25/30/79 24/29/80
s 8
f 19/23/81 20/24/82 26/31/83 25/30/84
s 4
f 20/24/85 21/25/86 27/32/87 26/31/88
s 9
f 21/25/89 22/26/90 28/33/91 27/32/92
s 10
f 22/26/93 17/27/94 23/34/95 28/33/96
s 11
f 25/37/97 26/36/98 27/35/99 28/40/100
f 25/37/97 28/40/100 23/39/101 24/38/102
s 10
f 30/43/72 29/41/71 17/27/94 22/26/93
s 9
f 31/44/68 30/43/67 22/26/90 21/25/89
s 4
f 32/45/64 31/44/63 21/25/86 20/24/85
s 8
f 33/46/60 32/45/59 20/24/82 19/23/81
s 7
f 34/47/56 33/46/55 19/23/78 18/22/77
s 1
f 29/42/52 34/47/51 18/22/74 17/21/73
s 10
f 36/50/103 35/48/104 11/20/70 16/19/69
s 9
f 37/51/105 36/50/106 16/19/66 15/18/65
s 4
f 38/52/40 37/51/39 15/18/62 14/17/61
s 8
f 39/53/36 38/52/35 14/17/58 13/16/57
s 7
f 40/54/32 39/53/31 13/16/54 12/15/53
s 1
f 35/49/28 40/54/27 12/15/50 11/14/49
f 42/57/4 41/55/3 7/8/26 6/7/25
s 6
f 72/58/24 75/90/23 80/94/46 77/12/45
s 5
f 73/88/20 72/58/19 77/12/42 76/93/41
s 4
f 44/60/16 43/59/15 10/11/38 9/10/37
s 3
f 63/79/12 62/78/11 64/80/107 65/81/108
s 1
f 49/65/8 48/64/7 50/66/109 51/67/110
s 12
f 3/3/111 45/61/112 48/64/113 47/63/114
s 1
f 41/55/3 2/2/2 46/62/115 49/65/116
s 12
f 45/61/112 8/9/117 50/66/118 48/64/113
s off
f 57/72/119 56/73/120 58/74/121 59/75/122
s 1
f 7/8/26 41/55/3 49/65/116 51/67/110
s 13
f 8/9/123 7/8/124 52/69/125 53/68/126
s 1
f 7/8/26 51/67/110 54/70/127 52/69/128
f 51/67/110 50/66/109 55/71/129 54/70/127
s 12
f 50/66/118 8/9/117 53/68/130 55/71/131
s 13
f 53/68/126 52/69/125 56/73/132 57/72/133
s 1
f 52/69/128 54/70/127 58/74/134 56/73/135
f 54/70/127 55/71/129 59/75/136 58/74/134
s 12
f 55/71/131 53/68/130 57/72/137 59/75/138
s 4
f 4/4/13 44/60/16 62/78/139 61/77/140
s 14
f 45/61/141 3/3/142 60/76/143 63/79/144
s 4
f 44/60/16 9/10/37 64/80/145 62/78/139
s off
f 67/82/146 66/83/147 68/84/148 69/85/149
s 14
f 8/9/150 45/61/141 63/79/144 65/81/151
s off
f 9/10/152 8/9/153 66/83/154 67/82/155
s 14
f 8/9/150 65/81/151 68/84/156 66/83/157
s 3
f 65/81/108 64/80/107 69/85/158 68/84/159
s off
f 64/80/160 9/10/161 67/82/162 69/85/163
s 4
f 43/59/15 5/5/14 70/86/164 73/88/165
s 1
f 1/6/1 42/56/4 75/90/166 74/89/167
s 15
f 82/96/168 83/97/169 84/98/170 85/99/171
s 4
f 37/51/39 10/11/38 76/93/172 79/92/173
s 1
f 6/13/25 35/48/28 81/95/174 80/94/175
s 15
f 86/100/176 82/96/168 85/99/171 87/101/177
s 1
f 42/56/4 6/13/25 80/94/175 75/90/166
s 4
f 10/11/38 43/59/15 73/88/165 76/93/178
s off
f 36/50/179 37/51/180 83/97/181 82/96/182
f 37/51/183 79/92/184 84/98/185 83/97/186
f 79/92/187 78/91/188 85/99/189 84/98/190
f 35/48/191 36/50/192 82/96/193 86/100/194
f 78/91/195 81/95/196 87/101/197 85/99/198
f 81/95/199 35/48/200 86/100/201 87/101/202
f 88/102/203 89/103/204 95/104/205 94/105/206
f 89/106/207 90/107/208 96/108/209 95/109/210
f 90/110/211 91/111/212 97/112/213 96/113/214
f 91/114/215 92/115/216 98/116/217 97/117/218
f 92/118/219 93/119/220 99/120/221 98/121/222
f 93/122/223 88/123/224 94/124/225 99/125/226
s 16
f 92/126/227 91/127/228 90/128/229 93/129/230
f 89/130/231 88/131/232 93/129/230 90/128/229
s 17
f 106/132/233 107/133/234 108/134/235 109/135/236
f 106/132/233 109/135/236 110/136/237 111/137/238
s off
f 96/138/239 97/139/240 101/140/241 100/141/242
f 97/139/243 98/142/244 102/143/245 101/140/246
f 98/142/247 99/144/248 103/145/249 102/143/250
f 99/144/251 94/146/252 104/147/253 103/145/254
f 94/146/255 95/148/256 105/149/257 104/147/258
f 95/148/259 96/138/260 100/141/261 105/149/262
f 100/141/263 101/140/264 107/133/265 106/132/266
f 101/140/267 102/143/268 108/134/269 107/133/270
f 102/143/271 103/145/272 109/135/273 108/134/274
f 103/145/275 104/147/276 110/136/277 109/135/278
f 104/147/279 105/149/280 111/137/281 110/136/282
f 105/149/283 100/141/284 106/132/285 111/137/286
