# This file uses meters as units for non-parametric coordinates.

mtllib PLAG_Platform_Base.mtl
g default
v 1110.521851 -155.905685 -1923.479126
v -1110.520996 -155.905685 -1923.479492
v -2221.042725 -155.905685 -0.000324
v -1110.521606 -155.905685 1923.479248
v 1110.521240 -155.905685 1923.479370
v 2221.042725 -155.905685 0.000007
v 1000.000488 100.000000 -1732.050659
v -999.999695 100.000000 -1732.051025
v -2000.000000 100.000000 -0.000298
v -1000.000244 100.000000 1732.050781
v 999.999939 100.000000 1732.050903
v 2000.000000 100.000000 0.000000
v -1974.250122 126.800003 -0.000295
v -987.125305 126.800003 1709.750732
v 987.125000 126.800003 1709.750854
v 1974.250122 126.800003 -0.000001
v 987.125549 126.800003 -1709.750610
v -987.124817 126.800003 -1709.750977
v -1889.758667 108.157791 -0.000285
v -944.879578 108.157791 1636.578979
v 944.879272 108.157791 1636.579102
v 1889.758667 108.157791 -0.000005
v 944.879822 108.157791 -1636.578979
v -944.879089 108.157791 -1636.579224
vt 0.578125 0.020934
vt 0.421875 0.020934
vt 0.343750 0.156250
vt 0.421875 0.291566
vt 0.578125 0.291566
vt 0.656250 0.156250
vt 0.375000 0.312500
vt 0.416667 0.312500
vt 0.458333 0.312500
vt 0.500000 0.312500
vt 0.541667 0.312500
vt 0.583333 0.312500
vt 0.625000 0.312500
vt 0.375000 0.688440
vt 0.416667 0.688440
vt 0.458333 0.688440
vt 0.500000 0.688440
vt 0.541667 0.688440
vt 0.583333 0.688440
vt 0.625000 0.688440
vt 0.578125 0.708434
vt 0.421875 0.708434
vt 0.343750 0.843750
vt 0.421875 0.979066
vt 0.578125 0.979066
vt 0.656250 0.843750
vt 0.343750 0.843750
vt 0.421875 0.708434
vt 0.578125 0.708434
vt 0.656250 0.843750
vt 0.578125 0.979066
vt 0.421875 0.979066
vt 0.343750 0.843750
vt 0.421875 0.708434
vt 0.578125 0.708434
vt 0.656250 0.843750
vt 0.578125 0.979066
vt 0.421875 0.979066
vn 0.000000 0.598997 -0.800752
vn 0.000000 0.598997 -0.800752
vn 0.000000 0.598997 -0.800752
vn 0.000000 0.598997 -0.800752
vn -0.693471 0.598997 -0.400376
vn -0.693471 0.598997 -0.400376
vn -0.693471 0.598997 -0.400376
vn -0.693471 0.598997 -0.400376
vn -0.693471 0.598997 0.400376
vn -0.693471 0.598997 0.400375
vn -0.693471 0.598997 0.400376
vn -0.693471 0.598997 0.400375
vn -0.000000 0.598997 0.800752
vn -0.000000 0.598997 0.800752
vn -0.000000 0.598997 0.800752
vn -0.000000 0.598997 0.800752
vn 0.693471 0.598997 0.400376
vn 0.693471 0.598997 0.400376
vn 0.693471 0.598997 0.400376
vn 0.693471 0.598997 0.400376
vn 0.693471 0.598997 -0.400376
vn 0.693471 0.598997 -0.400376
vn 0.693471 0.598997 -0.400376
vn 0.693471 0.598997 -0.400376
vn 0.000000 -1.000000 -0.000000
vn 0.000000 -1.000000 -0.000000
vn 0.000000 -1.000000 0.000000
vn 0.000000 -1.000000 0.000000
vn 0.000000 -1.000000 0.000000
vn 0.000000 -1.000000 0.000000
vn 0.000000 1.000000 -0.000000
vn 0.000000 1.000000 0.000000
vn 0.000000 1.000000 0.000000
vn 0.000000 1.000000 -0.000000
vn 0.000000 1.000000 -0.000000
vn 0.000000 1.000000 -0.000000
vn -0.665706 0.639621 0.384345
vn -0.665706 0.639621 0.384345
vn -0.665706 0.639621 0.384345
vn -0.665706 0.639621 0.384345
vn -0.000000 0.639621 0.768691
vn -0.000000 0.639621 0.768691
vn -0.000000 0.639621 0.768691
vn -0.000000 0.639621 0.768691
vn 0.665706 0.639621 0.384345
vn 0.665706 0.639621 0.384345
vn 0.665706 0.639621 0.384345
vn 0.665706 0.639621 0.384345
vn 0.665706 0.639621 -0.384345
vn 0.665706 0.639621 -0.384345
vn 0.665706 0.639621 -0.384345
vn 0.665706 0.639621 -0.384345
vn 0.000000 0.639621 -0.768691
vn 0.000000 0.639621 -0.768691
vn 0.000000 0.639621 -0.768691
vn 0.000000 0.639621 -0.768691
vn -0.665705 0.639621 -0.384345
vn -0.665705 0.639621 -0.384345
vn -0.665705 0.639621 -0.384345
vn -0.665705 0.639621 -0.384345
vn 0.213810 0.969044 -0.123443
vn 0.213810 0.969044 -0.123443
vn 0.213810 0.969044 -0.123443
vn 0.213810 0.969044 -0.123443
vn 0.000000 0.969044 -0.246887
vn 0.000000 0.969044 -0.246887
vn 0.000000 0.969044 -0.246887
vn 0.000000 0.969044 -0.246887
vn -0.213810 0.969044 -0.123443
vn -0.213810 0.969044 -0.123443
vn -0.213810 0.969044 -0.123443
vn -0.213810 0.969044 -0.123443
vn -0.213810 0.969045 0.123443
vn -0.213810 0.969045 0.123443
vn -0.213810 0.969045 0.123443
vn -0.213810 0.969045 0.123443
vn -0.000000 0.969044 0.246887
vn -0.000000 0.969044 0.246887
vn -0.000000 0.969044 0.246887
vn -0.000000 0.969044 0.246887
vn 0.213810 0.969044 0.123443
vn 0.213810 0.969044 0.123443
vn 0.213810 0.969044 0.123443
vn 0.213810 0.969044 0.123443
s off
g PLAG_Platform_Base
usemtl initialShadingGroup
f 1/7/1 2/8/2 8/15/3 7/14/4
f 2/8/5 3/9/6 9/16/7 8/15/8
f 3/9/9 4/10/10 10/17/11 9/16/12
f 4/10/13 5/11/14 11/18/15 10/17/16
f 5/11/17 6/12/18 12/19/19 11/18/20
f 6/12/21 1/13/22 7/20/23 12/19/24
s 1
f 5/5/25 4/4/26 3/3/27 6/6/28
f 2/2/29 1/1/30 6/6/28 3/3/27
s 2
f 19/33/31 20/34/32 21/35/33 22/36/34
f 19/33/31 22/36/34 23/37/35 24/38/36
s off
f 9/23/37 10/22/38 14/28/39 13/27/40
f 10/22/41 11/21/42 15/29/43 14/28/44
f 11/21/45 12/26/46 16/30/47 15/29/48
f 12/26/49 7/25/50 17/31/51 16/30/52
f 7/25/53 8/24/54 18/32/55 17/31/56
f 8/24/57 9/23/58 13/27/59 18/32/60
f 13/27/61 14/28/62 20/34/63 19/33/64
f 14/28/65 15/29/66 21/35/67 20/34/68
f 15/29/69 16/30/70 22/36/71 21/35/72
f 16/30/73 17/31/74 23/37/75 22/36/76
f 17/31/77 18/32/78 24/38/79 23/37/80
f 18/32/81 13/27/82 19/33/83 24/38/84
