# This file uses meters as units for non-parametric coordinates.

mtllib PLAG_Hex_Bldg_11_Col.mtl
g default
v 50.000023 0.000000 -86.602531
v -49.999985 0.000000 -86.602554
v -100.000000 0.000000 -0.000015
v -50.000011 0.000000 86.602539
v 49.999996 0.000000 86.602547
v 100.000000 0.000000 0.000000
v 50.000023 1099.999878 -86.602531
v -49.999985 1099.999878 -86.602554
v -100.000000 1099.999878 -0.000015
v -50.000011 1099.999878 86.602539
v 49.999996 1099.999878 86.602547
v 100.000000 1099.999878 0.000000
vt 0.163027 0.812957
vt 0.063047 0.812957
vt 0.013057 0.899542
vt 0.063047 0.986127
vt 0.163027 0.986127
vt 0.213016 0.899542
vt 0.178520 0.012439
vt 0.178520 0.012438
vt 0.985352 0.012438
vt 0.178521 0.012438
vt 0.178521 0.012438
vt 0.985352 0.012438
vt 0.985353 0.819269
vt 0.985352 0.819269
vt 0.178520 0.819269
vt 0.985352 0.819269
vt 0.985351 0.819270
vt 0.178522 0.819269
vt 0.163027 0.812957
vt 0.063047 0.812957
vt 0.013057 0.899542
vt 0.063047 0.986127
vt 0.163027 0.986127
vt 0.213016 0.899542
vt 0.178520 0.012439
vt 0.985352 0.819269
vt 0.178520 0.012439
vt 0.985352 0.819270
vt 0.985352 0.012438
vt 0.178521 0.819270
vt 0.985352 0.012439
vt 0.178521 0.819269
vt 0.985352 0.012438
vt 0.178520 0.819269
vt 0.985351 0.012439
vt 0.178522 0.819270
vn 0.000000 0.000000 -1.000000
vn 0.000000 0.000000 -1.000000
vn 0.000000 0.000000 -1.000000
vn 0.000000 0.000000 -1.000000
vn -0.866025 0.000000 -0.500000
vn -0.866025 0.000000 -0.500000
vn -0.866025 0.000000 -0.500000
vn -0.866025 0.000000 -0.500000
vn -0.866026 0.000000 0.500000
vn -0.866026 0.000000 0.500000
vn -0.866026 0.000000 0.500000
vn -0.866026 0.000000 0.500000
vn -0.000000 0.000000 1.000000
vn -0.000000 0.000000 1.000000
vn -0.000000 0.000000 1.000000
vn -0.000000 0.000000 1.000000
vn 0.866025 0.000000 0.500000
vn 0.866025 0.000000 0.500000
vn 0.866025 0.000000 0.500000
vn 0.866025 0.000000 0.500000
vn 0.866026 0.000000 -0.500000
vn 0.866026 0.000000 -0.500000
vn 0.866026 0.000000 -0.500000
vn 0.866026 0.000000 -0.500000
vn 0.000000 -1.000000 0.000000
vn 0.000000 -1.000000 0.000000
vn 0.000000 -1.000000 0.000000
vn 0.000000 -1.000000 0.000000
vn 0.000000 -1.000000 0.000000
vn 0.000000 -1.000000 0.000000
vn 0.000000 1.000000 -0.000000
vn 0.000000 1.000000 -0.000001
vn 0.000000 1.000000 -0.000001
vn 0.000000 1.000000 -0.000000
vn 0.000000 1.000000 0.000001
vn 0.000000 1.000000 0.000001
s off
g PLAG_Hex_Bldg_11_Col
usemtl initialShadingGroup
f 1/7/1 2/33/2 8/14/3 7/36/4
f 2/8/5 3/9/6 9/28/7 8/34/8
f 3/27/9 4/31/10 10/16/11 9/15/12
f 4/10/13 5/29/14 11/17/15 10/32/16
f 5/11/17 6/12/18 12/26/19 11/30/20
f 6/25/21 1/35/22 7/13/23 12/18/24
s 1
f 5/5/25 4/4/26 3/3/27 6/6/28
f 2/2/29 1/1/30 6/6/28 3/3/27
s 2
f 9/21/31 10/20/32 11/19/33 12/24/34
f 9/21/31 12/24/34 7/23/35 8/22/36
