# This file uses meters as units for non-parametric coordinates.

mtllib PLAG_Platform.mtl
g default
v 1110.521851 -255.905685 -1923.479126
v -1110.520996 -255.905685 -1923.479492
v -2221.042725 -255.905685 -0.000324
v -1110.521606 -255.905685 1923.479248
v 1110.521240 -255.905685 1923.479370
v 2221.042725 -255.905685 0.000007
v 1000.000488 0.000000 -1732.050659
v -999.999695 0.000000 -1732.051025
v -2000.000000 0.000000 -0.000298
v -1000.000244 0.000000 1732.050781
v 999.999939 0.000000 1732.050903
v 2000.000000 0.000000 0.000000
v -1974.250122 26.800003 -0.000295
v -987.125305 26.800003 1709.750732
v 987.125000 26.800003 1709.750854
v 1974.250122 26.800003 -0.000001
v 987.125549 26.800003 -1709.750610
v -987.124817 26.800003 -1709.750977
v -1889.758667 8.157791 -0.000285
v -944.879578 8.157791 1636.578979
v 944.879272 8.157791 1636.579102
v 1889.758667 8.157791 -0.000005
v 944.879822 8.157791 -1636.578979
v -944.879089 8.157791 -1636.579224
vt 0.817841 0.010838
vt 0.761964 0.010838
vt 0.734025 0.059229
vt 0.761964 0.107620
vt 0.817841 0.107620
vt 0.845780 0.059229
vt 0.847966 0.971921
vt 0.847869 0.971921
vt 0.849791 0.014356
vt 0.847886 0.971921
vt 0.847893 0.971921
vt 0.849766 0.014356
vt 0.849725 0.014356
vt 0.985833 0.924519
vt 0.985747 0.924548
vt 0.985785 0.924511
vt 0.985762 0.924543
vt 0.985768 0.924541
vt 0.985800 0.924531
vt 0.987419 0.062264
vt 0.623003 0.007052
vt 0.216727 0.006528
vt 0.013137 0.358112
vt 0.215823 0.710217
vt 0.622099 0.710737
vt 0.825682 0.359156
vt 0.020861 0.358102
vt 0.220598 0.013212
vt 0.619149 0.013746
vt 0.817958 0.359166
vt 0.618228 0.704053
vt 0.219676 0.703523
vt 0.038387 0.358132
vt 0.229335 0.028404
vt 0.610361 0.028908
vt 0.800433 0.359136
vt 0.609491 0.688861
vt 0.228465 0.688361
vt 0.849689 0.014356
vt 0.987387 0.062254
vt 0.847911 0.971895
vt 0.987478 0.062281
vt 0.849756 0.014329
vt 0.987447 0.062243
vt 0.849773 0.014356
vt 0.987462 0.062277
vt 0.847928 0.971921
vt 0.987455 0.062275
vn 0.000000 0.598997 -0.800752
vn 0.000000 0.598997 -0.800752
vn 0.000000 0.598997 -0.800752
vn 0.000000 0.598997 -0.800752
vn -0.693471 0.598997 -0.400376
vn -0.693471 0.598997 -0.400376
vn -0.693471 0.598997 -0.400376
vn -0.693471 0.598997 -0.400376
vn -0.693471 0.598997 0.400376
vn -0.693471 0.598997 0.400375
vn -0.693471 0.598997 0.400376
vn -0.693471 0.598997 0.400375
vn -0.000000 0.598997 0.800752
vn -0.000000 0.598997 0.800752
vn -0.000000 0.598997 0.800752
vn -0.000000 0.598997 0.800752
vn 0.693471 0.598997 0.400376
vn 0.693471 0.598997 0.400376
vn 0.693471 0.598997 0.400376
vn 0.693471 0.598997 0.400376
vn 0.693471 0.598997 -0.400376
vn 0.693471 0.598997 -0.400376
vn 0.693471 0.598997 -0.400376
vn 0.693471 0.598997 -0.400376
vn 0.000000 -1.000000 -0.000000
vn 0.000000 -1.000000 -0.000000
vn 0.000000 -1.000000 0.000000
vn 0.000000 -1.000000 0.000000
vn 0.000000 -1.000000 0.000000
vn 0.000000 -1.000000 0.000000
vn 0.000000 1.000000 -0.000000
vn 0.000000 1.000000 0.000000
vn 0.000000 1.000000 0.000000
vn 0.000000 1.000000 -0.000000
vn 0.000000 1.000000 -0.000000
vn 0.000000 1.000000 -0.000000
vn -0.665706 0.639621 0.384345
vn -0.665706 0.639621 0.384345
vn -0.665706 0.639621 0.384345
vn -0.665706 0.639621 0.384345
vn -0.000000 0.639621 0.768691
vn -0.000000 0.639621 0.768691
vn -0.000000 0.639621 0.768691
vn -0.000000 0.639621 0.768691
vn 0.665706 0.639621 0.384345
vn 0.665706 0.639621 0.384345
vn 0.665706 0.639621 0.384345
vn 0.665706 0.639621 0.384345
vn 0.665706 0.639621 -0.384345
vn 0.665706 0.639621 -0.384345
vn 0.665706 0.639621 -0.384345
vn 0.665706 0.639621 -0.384345
vn 0.000000 0.639621 -0.768691
vn 0.000000 0.639621 -0.768691
vn 0.000000 0.639621 -0.768691
vn 0.000000 0.639621 -0.768691
vn -0.665705 0.639621 -0.384345
vn -0.665705 0.639621 -0.384345
vn -0.665705 0.639621 -0.384345
vn -0.665705 0.639621 -0.384345
vn 0.213810 0.969044 -0.123443
vn 0.213810 0.969044 -0.123443
vn 0.213810 0.969044 -0.123443
vn 0.213810 0.969044 -0.123443
vn 0.000000 0.969044 -0.246887
vn 0.000000 0.969044 -0.246887
vn 0.000000 0.969044 -0.246887
vn 0.000000 0.969044 -0.246887
vn -0.213810 0.969044 -0.123443
vn -0.213810 0.969044 -0.123443
vn -0.213810 0.969044 -0.123443
vn -0.213810 0.969044 -0.123443
vn -0.213810 0.969045 0.123443
vn -0.213810 0.969045 0.123443
vn -0.213810 0.969045 0.123443
vn -0.213810 0.969045 0.123443
vn -0.000000 0.969044 0.246887
vn -0.000000 0.969044 0.246887
vn -0.000000 0.969044 0.246887
vn -0.000000 0.969044 0.246887
vn 0.213810 0.969044 0.123443
vn 0.213810 0.969044 0.123443
vn 0.213810 0.969044 0.123443
vn 0.213810 0.969044 0.123443
s off
g PLAG_Platform_Base
usemtl initialShadingGroup
f 1/7/1 2/39/2 8/40/3 7/14/4
f 2/8/5 3/9/6 9/42/7 8/15/8
f 3/41/9 4/43/10 10/44/11 9/16/12
f 4/10/13 5/45/14 11/46/15 10/17/16
f 5/11/17 6/12/18 12/48/19 11/18/20
f 6/47/21 1/13/22 7/20/23 12/19/24
s 1
f 5/5/25 4/4/26 3/3/27 6/6/28
f 2/2/29 1/1/30 6/6/28 3/3/27
s 2
f 19/33/31 20/34/32 21/35/33 22/36/34
f 19/33/31 22/36/34 23/37/35 24/38/36
s off
f 9/23/37 10/22/38 14/28/39 13/27/40
f 10/22/41 11/21/42 15/29/43 14/28/44
f 11/21/45 12/26/46 16/30/47 15/29/48
f 12/26/49 7/25/50 17/31/51 16/30/52
f 7/25/53 8/24/54 18/32/55 17/31/56
f 8/24/57 9/23/58 13/27/59 18/32/60
f 13/27/61 14/28/62 20/34/63 19/33/64
f 14/28/65 15/29/66 21/35/67 20/34/68
f 15/29/69 16/30/70 22/36/71 21/35/72
f 16/30/73 17/31/74 23/37/75 22/36/76
f 17/31/77 18/32/78 24/38/79 23/37/80
f 18/32/81 13/27/82 19/33/83 24/38/84
