# This file uses meters as units for non-parametric coordinates.

mtllib PLAG_Hex_Bldg_12.mtl
g default
v 50.000023 300.000000 -86.602531
v -49.999985 300.000000 -86.602554
v -100.000000 300.000000 -0.000015
v -50.000011 300.000000 86.602539
v 49.999996 300.000000 86.602547
v 100.000000 300.000000 0.000000
v 50.000023 400.000000 -86.602531
v -49.999985 400.000000 -86.602554
v -100.000000 400.000000 -0.000015
v -50.000011 400.000000 86.602539
v 49.999996 400.000000 86.602547
v 100.000000 400.000000 0.000000
v 50.000023 400.000000 -86.602531
v -49.999985 400.000000 -86.602554
v -100.000000 400.000000 -0.000015
v -50.000011 400.000000 86.602539
v 49.999996 400.000000 86.602547
v 100.000000 400.000000 0.000000
v 50.000023 500.000000 -86.602531
v -49.999985 500.000000 -86.602554
v -100.000000 500.000000 -0.000015
v -50.000011 500.000000 86.602539
v 49.999996 500.000000 86.602547
v 100.000000 500.000000 0.000000
v 50.000023 200.000000 -86.602531
v -49.999985 200.000000 -86.602554
v -100.000000 200.000000 -0.000015
v -50.000011 200.000000 86.602539
v 49.999996 200.000000 86.602547
v 100.000000 200.000000 0.000000
v 50.000023 300.000000 -86.602531
v -49.999985 300.000000 -86.602554
v -100.000000 300.000000 -0.000015
v -50.000011 300.000000 86.602539
v 49.999996 300.000000 86.602547
v 100.000000 300.000000 0.000000
v 50.000023 100.000000 -86.602531
v -49.999985 100.000000 -86.602554
v -100.000000 100.000000 -0.000015
v -50.000011 100.000000 86.602539
v 49.999996 100.000000 86.602547
v 100.000000 100.000000 0.000000
v 50.000023 200.000000 -86.602531
v -49.999985 200.000000 -86.602554
v -100.000000 200.000000 -0.000015
v -50.000011 200.000000 86.602539
v 49.999996 200.000000 86.602547
v 100.000000 200.000000 0.000000
v 50.000023 0.000000 -86.602531
v -49.999985 0.000000 -86.602554
v -100.000000 0.000000 -0.000015
v -50.000011 0.000000 86.602539
v 49.999996 0.000000 86.602547
v 100.000000 0.000000 0.000000
v 50.000023 100.000000 -86.602531
v -49.999985 100.000000 -86.602554
v -100.000000 100.000000 -0.000015
v -50.000011 100.000000 86.602539
v 49.999996 100.000000 86.602547
v 100.000000 100.000000 0.000000
v 50.000023 1100.000000 -86.602531
v -49.999985 1100.000000 -86.602554
v -100.000000 1100.000000 -0.000015
v -50.000011 1100.000000 86.602539
v 49.999996 1100.000000 86.602547
v 100.000000 1100.000000 0.000000
v 50.000023 1200.000000 -86.602531
v -49.999985 1200.000000 -86.602554
v -100.000000 1200.000000 -0.000015
v -50.000011 1200.000000 86.602539
v 49.999996 1200.000000 86.602547
v 100.000000 1200.000000 0.000000
v 50.000023 500.000000 -86.602531
v -49.999985 500.000000 -86.602554
v -100.000000 500.000000 -0.000015
v -50.000011 500.000000 86.602539
v 49.999996 500.000000 86.602547
v 100.000000 500.000000 0.000000
v 50.000023 600.000000 -86.602531
v -49.999985 600.000000 -86.602554
v -100.000000 600.000000 -0.000015
v -50.000011 600.000000 86.602539
v 49.999996 600.000000 86.602547
v 100.000000 600.000000 0.000000
v 50.000023 600.000000 -86.602531
v -49.999985 600.000000 -86.602554
v -100.000000 600.000000 -0.000015
v -50.000011 600.000000 86.602539
v 49.999996 600.000000 86.602547
v 100.000000 600.000000 0.000000
v 50.000023 700.000000 -86.602531
v -49.999985 700.000000 -86.602554
v -100.000000 700.000000 -0.000015
v -50.000011 700.000000 86.602539
v 49.999996 700.000000 86.602547
v 100.000000 700.000000 0.000000
v 50.000023 700.000000 -86.602531
v -49.999985 700.000000 -86.602554
v -100.000000 700.000000 -0.000015
v -50.000011 700.000000 86.602539
v 49.999996 700.000000 86.602547
v 100.000000 700.000000 0.000000
v 50.000023 800.000000 -86.602531
v -49.999985 800.000000 -86.602554
v -100.000000 800.000000 -0.000015
v -50.000011 800.000000 86.602539
v 49.999996 800.000000 86.602547
v 100.000000 800.000000 0.000000
v 50.000023 800.000000 -86.602531
v -49.999985 800.000000 -86.602554
v -100.000000 800.000000 -0.000015
v -50.000011 800.000000 86.602539
v 49.999996 800.000000 86.602547
v 100.000000 800.000000 0.000000
v 50.000023 900.000000 -86.602531
v -49.999985 900.000000 -86.602554
v -100.000000 900.000000 -0.000015
v -50.000011 900.000000 86.602539
v 49.999996 900.000000 86.602547
v 100.000000 900.000000 0.000000
v 50.000023 900.000000 -86.602531
v -49.999985 900.000000 -86.602554
v -100.000000 900.000000 -0.000015
v -50.000011 900.000000 86.602539
v 49.999996 900.000000 86.602547
v 100.000000 900.000000 0.000000
v 50.000023 1000.000000 -86.602531
v -49.999985 1000.000000 -86.602554
v -100.000000 1000.000000 -0.000015
v -50.000011 1000.000000 86.602539
v 49.999996 1000.000000 86.602547
v 100.000000 1000.000000 0.000000
v 50.000023 1000.000000 -86.602531
v -49.999985 1000.000000 -86.602554
v -100.000000 1000.000000 -0.000015
v -50.000011 1000.000000 86.602539
v 49.999996 1000.000000 86.602547
v 100.000000 1000.000000 0.000000
v 50.000023 1100.000000 -86.602531
v -49.999985 1100.000000 -86.602554
v -100.000000 1100.000000 -0.000015
v -50.000011 1100.000000 86.602539
v 49.999996 1100.000000 86.602547
v 100.000000 1100.000000 0.000000
vt 0.178520 0.012439
vt 0.178520 0.012438
vt 0.985352 0.012438
vt 0.178521 0.012438
vt 0.178521 0.012438
vt 0.985352 0.012438
vt 0.985353 0.819269
vt 0.985352 0.819269
vt 0.178520 0.819269
vt 0.985352 0.819269
vt 0.985351 0.819270
vt 0.178522 0.819269
vt 0.178520 0.012439
vt 0.985352 0.819269
vt 0.178520 0.012439
vt 0.985352 0.819270
vt 0.985352 0.012438
vt 0.178521 0.819270
vt 0.985352 0.012439
vt 0.178521 0.819269
vt 0.985352 0.012438
vt 0.178520 0.819269
vt 0.985351 0.012439
vt 0.178522 0.819270
vt 0.178520 0.012439
vt 0.985352 0.012438
vt 0.985352 0.819269
vt 0.178522 0.819270
vt 0.178520 0.012438
vt 0.985352 0.012438
vt 0.985352 0.819270
vt 0.178520 0.819269
vt 0.178520 0.012439
vt 0.985352 0.012439
vt 0.985352 0.819269
vt 0.178520 0.819269
vt 0.178521 0.012438
vt 0.985352 0.012438
vt 0.985351 0.819270
vt 0.178521 0.819269
vt 0.178521 0.012438
vt 0.985352 0.012438
vt 0.985352 0.819269
vt 0.178521 0.819270
vt 0.178520 0.012439
vt 0.985351 0.012439
vt 0.985353 0.819269
vt 0.178522 0.819269
vt 0.178520 0.012439
vt 0.985352 0.012438
vt 0.985352 0.819269
vt 0.178522 0.819270
vt 0.178520 0.012438
vt 0.985352 0.012438
vt 0.985352 0.819270
vt 0.178520 0.819269
vt 0.178520 0.012439
vt 0.985352 0.012439
vt 0.985352 0.819269
vt 0.178520 0.819269
vt 0.178521 0.012438
vt 0.985352 0.012438
vt 0.985351 0.819270
vt 0.178521 0.819269
vt 0.178521 0.012438
vt 0.985352 0.012438
vt 0.985352 0.819269
vt 0.178521 0.819270
vt 0.178520 0.012439
vt 0.985351 0.012439
vt 0.985353 0.819269
vt 0.178522 0.819269
vt 0.178520 0.012439
vt 0.985352 0.012438
vt 0.985352 0.819269
vt 0.178522 0.819270
vt 0.178520 0.012438
vt 0.985352 0.012438
vt 0.985352 0.819270
vt 0.178520 0.819269
vt 0.178520 0.012439
vt 0.985352 0.012439
vt 0.985352 0.819269
vt 0.178520 0.819269
vt 0.178521 0.012438
vt 0.985352 0.012438
vt 0.985351 0.819270
vt 0.178521 0.819269
vt 0.178521 0.012438
vt 0.985352 0.012438
vt 0.985352 0.819269
vt 0.178521 0.819270
vt 0.178520 0.012439
vt 0.985351 0.012439
vt 0.985353 0.819269
vt 0.178522 0.819269
vt 0.178520 0.012439
vt 0.985352 0.012438
vt 0.985352 0.819269
vt 0.178522 0.819270
vt 0.178520 0.012438
vt 0.985352 0.012438
vt 0.985352 0.819270
vt 0.178520 0.819269
vt 0.178520 0.012439
vt 0.985352 0.012439
vt 0.985352 0.819269
vt 0.178520 0.819269
vt 0.178521 0.012438
vt 0.985352 0.012438
vt 0.985351 0.819270
vt 0.178521 0.819269
vt 0.178521 0.012438
vt 0.985352 0.012438
vt 0.985352 0.819269
vt 0.178521 0.819270
vt 0.178520 0.012439
vt 0.985351 0.012439
vt 0.985353 0.819269
vt 0.178522 0.819269
vt 0.163027 0.986127
vt 0.063047 0.986127
vt 0.013057 0.899542
vt 0.213016 0.899542
vt 0.063047 0.812957
vt 0.163027 0.812957
vt 0.178520 0.012439
vt 0.985352 0.012438
vt 0.985352 0.819269
vt 0.178522 0.819270
vt 0.178520 0.012438
vt 0.985352 0.012438
vt 0.985352 0.819270
vt 0.178520 0.819269
vt 0.178520 0.012439
vt 0.985352 0.012439
vt 0.985352 0.819269
vt 0.178520 0.819269
vt 0.178521 0.012438
vt 0.985352 0.012438
vt 0.985351 0.819270
vt 0.178521 0.819269
vt 0.178521 0.012438
vt 0.985352 0.012438
vt 0.985352 0.819269
vt 0.178521 0.819270
vt 0.178520 0.012439
vt 0.985351 0.012439
vt 0.985353 0.819269
vt 0.178522 0.819269
vt 0.013057 0.899542
vt 0.063047 0.812957
vt 0.163027 0.812957
vt 0.213016 0.899542
vt 0.163027 0.986127
vt 0.063047 0.986127
vt 0.178520 0.012439
vt 0.985352 0.012438
vt 0.985352 0.819269
vt 0.178522 0.819270
vt 0.178520 0.012438
vt 0.985352 0.012438
vt 0.985352 0.819270
vt 0.178520 0.819269
vt 0.178520 0.012439
vt 0.985352 0.012439
vt 0.985352 0.819269
vt 0.178520 0.819269
vt 0.178521 0.012438
vt 0.985352 0.012438
vt 0.985351 0.819270
vt 0.178521 0.819269
vt 0.178521 0.012438
vt 0.985352 0.012438
vt 0.985352 0.819269
vt 0.178521 0.819270
vt 0.178520 0.012439
vt 0.985351 0.012439
vt 0.985353 0.819269
vt 0.178522 0.819269
vt 0.178520 0.012439
vt 0.985352 0.012438
vt 0.985352 0.819269
vt 0.178522 0.819270
vt 0.178520 0.012438
vt 0.985352 0.012438
vt 0.985352 0.819270
vt 0.178520 0.819269
vt 0.178520 0.012439
vt 0.985352 0.012439
vt 0.985352 0.819269
vt 0.178520 0.819269
vt 0.178521 0.012438
vt 0.985352 0.012438
vt 0.985351 0.819270
vt 0.178521 0.819269
vt 0.178521 0.012438
vt 0.985352 0.012438
vt 0.985352 0.819269
vt 0.178521 0.819270
vt 0.178520 0.012439
vt 0.985351 0.012439
vt 0.985353 0.819269
vt 0.178522 0.819269
vt 0.178520 0.012439
vt 0.985352 0.012438
vt 0.985352 0.819269
vt 0.178522 0.819270
vt 0.178520 0.012438
vt 0.985352 0.012438
vt 0.985352 0.819270
vt 0.178520 0.819269
vt 0.178520 0.012439
vt 0.985352 0.012439
vt 0.985352 0.819269
vt 0.178520 0.819269
vt 0.178521 0.012438
vt 0.985352 0.012438
vt 0.985351 0.819270
vt 0.178521 0.819269
vt 0.178521 0.012438
vt 0.985352 0.012438
vt 0.985352 0.819269
vt 0.178521 0.819270
vt 0.178520 0.012439
vt 0.985351 0.012439
vt 0.985353 0.819269
vt 0.178522 0.819269
vt 0.178520 0.012439
vt 0.985352 0.012438
vt 0.985352 0.819269
vt 0.178522 0.819270
vt 0.178520 0.012438
vt 0.985352 0.012438
vt 0.985352 0.819270
vt 0.178520 0.819269
vt 0.178520 0.012439
vt 0.985352 0.012439
vt 0.985352 0.819269
vt 0.178520 0.819269
vt 0.178521 0.012438
vt 0.985352 0.012438
vt 0.985351 0.819270
vt 0.178521 0.819269
vt 0.178521 0.012438
vt 0.985352 0.012438
vt 0.985352 0.819269
vt 0.178521 0.819270
vt 0.178520 0.012439
vt 0.985351 0.012439
vt 0.985353 0.819269
vt 0.178522 0.819269
vt 0.178520 0.012439
vt 0.985352 0.012438
vt 0.985352 0.819269
vt 0.178522 0.819270
vt 0.178520 0.012438
vt 0.985352 0.012438
vt 0.985352 0.819270
vt 0.178520 0.819269
vt 0.178520 0.012439
vt 0.985352 0.012439
vt 0.985352 0.819269
vt 0.178520 0.819269
vt 0.178521 0.012438
vt 0.985352 0.012438
vt 0.985351 0.819270
vt 0.178521 0.819269
vt 0.178521 0.012438
vt 0.985352 0.012438
vt 0.985352 0.819269
vt 0.178521 0.819270
vt 0.178520 0.012439
vt 0.985351 0.012439
vt 0.985353 0.819269
vt 0.178522 0.819269
vt 0.178520 0.012439
vt 0.985352 0.012438
vt 0.985352 0.819269
vt 0.178522 0.819270
vt 0.178520 0.012438
vt 0.985352 0.012438
vt 0.985352 0.819270
vt 0.178520 0.819269
vt 0.178520 0.012439
vt 0.985352 0.012439
vt 0.985352 0.819269
vt 0.178520 0.819269
vt 0.178521 0.012438
vt 0.985352 0.012438
vt 0.985351 0.819270
vt 0.178521 0.819269
vt 0.178521 0.012438
vt 0.985352 0.012438
vt 0.985352 0.819269
vt 0.178521 0.819270
vt 0.178520 0.012439
vt 0.985351 0.012439
vt 0.985353 0.819269
vt 0.178522 0.819269
vn 0.000000 0.000000 -1.000000
vn 0.000000 0.000000 -1.000000
vn 0.000000 0.000000 -1.000000
vn 0.000000 0.000000 -1.000000
vn -0.866025 0.000000 -0.500000
vn -0.866025 0.000000 -0.500000
vn -0.866025 0.000000 -0.500000
vn -0.866025 0.000000 -0.500000
vn -0.866026 0.000000 0.500000
vn -0.866026 0.000000 0.500000
vn -0.866026 0.000000 0.500000
vn -0.866026 0.000000 0.500000
vn -0.000000 0.000000 1.000000
vn -0.000000 0.000000 1.000000
vn -0.000000 0.000000 1.000000
vn -0.000000 0.000000 1.000000
vn 0.866025 0.000000 0.500000
vn 0.866025 0.000000 0.500000
vn 0.866025 0.000000 0.500000
vn 0.866025 0.000000 0.500000
vn 0.866026 0.000000 -0.500000
vn 0.866026 0.000000 -0.500000
vn 0.866026 0.000000 -0.500000
vn 0.866026 0.000000 -0.500000
vn 0.000000 0.000000 -1.000000
vn 0.000000 0.000000 -1.000000
vn 0.000000 0.000000 -1.000000
vn 0.000000 0.000000 -1.000000
vn -0.866025 0.000000 -0.500000
vn -0.866025 0.000000 -0.500000
vn -0.866025 0.000000 -0.500000
vn -0.866025 0.000000 -0.500000
vn -0.866026 0.000000 0.500000
vn -0.866026 0.000000 0.500000
vn -0.866026 0.000000 0.500000
vn -0.866026 0.000000 0.500000
vn -0.000000 0.000000 1.000000
vn -0.000000 0.000000 1.000000
vn -0.000000 0.000000 1.000000
vn -0.000000 0.000000 1.000000
vn 0.866025 0.000000 0.500000
vn 0.866025 0.000000 0.500000
vn 0.866025 0.000000 0.500000
vn 0.866025 0.000000 0.500000
vn 0.866026 0.000000 -0.500000
vn 0.866026 0.000000 -0.500000
vn 0.866026 0.000000 -0.500000
vn 0.866026 0.000000 -0.500000
vn 0.000000 0.000000 -1.000000
vn 0.000000 0.000000 -1.000000
vn 0.000000 0.000000 -1.000000
vn 0.000000 0.000000 -1.000000
vn -0.866025 0.000000 -0.500000
vn -0.866025 0.000000 -0.500000
vn -0.866025 0.000000 -0.500000
vn -0.866025 0.000000 -0.500000
vn -0.866026 0.000000 0.500000
vn -0.866026 0.000000 0.500000
vn -0.866026 0.000000 0.500000
vn -0.866026 0.000000 0.500000
vn -0.000000 0.000000 1.000000
vn -0.000000 0.000000 1.000000
vn -0.000000 0.000000 1.000000
vn -0.000000 0.000000 1.000000
vn 0.866025 0.000000 0.500000
vn 0.866025 0.000000 0.500000
vn 0.866025 0.000000 0.500000
vn 0.866025 0.000000 0.500000
vn 0.866026 0.000000 -0.500000
vn 0.866026 0.000000 -0.500000
vn 0.866026 0.000000 -0.500000
vn 0.866026 0.000000 -0.500000
vn 0.000000 0.000000 -1.000000
vn 0.000000 0.000000 -1.000000
vn 0.000000 0.000000 -1.000000
vn 0.000000 0.000000 -1.000000
vn -0.866025 0.000000 -0.500000
vn -0.866025 0.000000 -0.500000
vn -0.866025 0.000000 -0.500000
vn -0.866025 0.000000 -0.500000
vn -0.866026 0.000000 0.500000
vn -0.866026 0.000000 0.500000
vn -0.866026 0.000000 0.500000
vn -0.866026 0.000000 0.500000
vn -0.000000 0.000000 1.000000
vn -0.000000 0.000000 1.000000
vn -0.000000 0.000000 1.000000
vn -0.000000 0.000000 1.000000
vn 0.866025 0.000000 0.500000
vn 0.866025 0.000000 0.500000
vn 0.866025 0.000000 0.500000
vn 0.866025 0.000000 0.500000
vn 0.866026 0.000000 -0.500000
vn 0.866026 0.000000 -0.500000
vn 0.866026 0.000000 -0.500000
vn 0.866026 0.000000 -0.500000
vn 0.000000 0.000000 -1.000000
vn 0.000000 0.000000 -1.000000
vn 0.000000 0.000000 -1.000000
vn 0.000000 0.000000 -1.000000
vn -0.866025 0.000000 -0.500000
vn -0.866025 0.000000 -0.500000
vn -0.866025 0.000000 -0.500000
vn -0.866025 0.000000 -0.500000
vn -0.866026 0.000000 0.500000
vn -0.866026 0.000000 0.500000
vn -0.866026 0.000000 0.500000
vn -0.866026 0.000000 0.500000
vn -0.000000 0.000000 1.000000
vn -0.000000 0.000000 1.000000
vn -0.000000 0.000000 1.000000
vn -0.000000 0.000000 1.000000
vn 0.866025 0.000000 0.500000
vn 0.866025 0.000000 0.500000
vn 0.866025 0.000000 0.500000
vn 0.866025 0.000000 0.500000
vn 0.866026 0.000000 -0.500000
vn 0.866026 0.000000 -0.500000
vn 0.866026 0.000000 -0.500000
vn 0.866026 0.000000 -0.500000
vn 0.000000 -1.000000 0.000000
vn 0.000000 -1.000000 0.000000
vn 0.000000 -1.000000 0.000000
vn 0.000000 -1.000000 0.000000
vn 0.000000 -1.000000 0.000000
vn 0.000000 -1.000000 0.000000
vn 0.000000 0.000000 -1.000000
vn 0.000000 0.000000 -1.000000
vn 0.000000 0.000000 -1.000000
vn 0.000000 0.000000 -1.000000
vn -0.866025 0.000000 -0.500000
vn -0.866025 0.000000 -0.500000
vn -0.866025 0.000000 -0.500000
vn -0.866025 0.000000 -0.500000
vn -0.866026 0.000000 0.500000
vn -0.866026 0.000000 0.500000
vn -0.866026 0.000000 0.500000
vn -0.866026 0.000000 0.500000
vn -0.000000 0.000000 1.000000
vn -0.000000 0.000000 1.000000
vn -0.000000 0.000000 1.000000
vn -0.000000 0.000000 1.000000
vn 0.866025 0.000000 0.500000
vn 0.866025 0.000000 0.500000
vn 0.866025 0.000000 0.500000
vn 0.866025 0.000000 0.500000
vn 0.866026 0.000000 -0.500000
vn 0.866026 0.000000 -0.500000
vn 0.866026 0.000000 -0.500000
vn 0.866026 0.000000 -0.500000
vn 0.000000 1.000000 -0.000000
vn 0.000000 1.000000 0.000000
vn 0.000000 1.000000 0.000000
vn 0.000000 1.000000 -0.000000
vn 0.000000 1.000000 -0.000000
vn 0.000000 1.000000 -0.000000
vn 0.000000 0.000000 -1.000000
vn 0.000000 0.000000 -1.000000
vn 0.000000 0.000000 -1.000000
vn 0.000000 0.000000 -1.000000
vn -0.866025 0.000000 -0.500000
vn -0.866025 0.000000 -0.500000
vn -0.866025 0.000000 -0.500000
vn -0.866025 0.000000 -0.500000
vn -0.866026 0.000000 0.500000
vn -0.866026 0.000000 0.500000
vn -0.866026 0.000000 0.500000
vn -0.866026 0.000000 0.500000
vn -0.000000 0.000000 1.000000
vn -0.000000 0.000000 1.000000
vn -0.000000 0.000000 1.000000
vn -0.000000 0.000000 1.000000
vn 0.866025 0.000000 0.500000
vn 0.866025 0.000000 0.500000
vn 0.866025 0.000000 0.500000
vn 0.866025 0.000000 0.500000
vn 0.866026 0.000000 -0.500000
vn 0.866026 0.000000 -0.500000
vn 0.866026 0.000000 -0.500000
vn 0.866026 0.000000 -0.500000
vn 0.000000 0.000000 -1.000000
vn 0.000000 0.000000 -1.000000
vn 0.000000 0.000000 -1.000000
vn 0.000000 0.000000 -1.000000
vn -0.866025 0.000000 -0.500000
vn -0.866025 0.000000 -0.500000
vn -0.866025 0.000000 -0.500000
vn -0.866025 0.000000 -0.500000
vn -0.866026 0.000000 0.500000
vn -0.866026 0.000000 0.500000
vn -0.866026 0.000000 0.500000
vn -0.866026 0.000000 0.500000
vn -0.000000 0.000000 1.000000
vn -0.000000 0.000000 1.000000
vn -0.000000 0.000000 1.000000
vn -0.000000 0.000000 1.000000
vn 0.866025 0.000000 0.500000
vn 0.866025 0.000000 0.500000
vn 0.866025 0.000000 0.500000
vn 0.866025 0.000000 0.500000
vn 0.866026 0.000000 -0.500000
vn 0.866026 0.000000 -0.500000
vn 0.866026 0.000000 -0.500000
vn 0.866026 0.000000 -0.500000
vn 0.000000 0.000000 -1.000000
vn 0.000000 0.000000 -1.000000
vn 0.000000 0.000000 -1.000000
vn 0.000000 0.000000 -1.000000
vn -0.866025 0.000000 -0.500000
vn -0.866025 0.000000 -0.500000
vn -0.866025 0.000000 -0.500000
vn -0.866025 0.000000 -0.500000
vn -0.866026 0.000000 0.500000
vn -0.866026 0.000000 0.500000
vn -0.866026 0.000000 0.500000
vn -0.866026 0.000000 0.500000
vn -0.000000 0.000000 1.000000
vn -0.000000 0.000000 1.000000
vn -0.000000 0.000000 1.000000
vn -0.000000 0.000000 1.000000
vn 0.866025 0.000000 0.500000
vn 0.866025 0.000000 0.500000
vn 0.866025 0.000000 0.500000
vn 0.866025 0.000000 0.500000
vn 0.866026 0.000000 -0.500000
vn 0.866026 0.000000 -0.500000
vn 0.866026 0.000000 -0.500000
vn 0.866026 0.000000 -0.500000
vn 0.000000 0.000000 -1.000000
vn 0.000000 0.000000 -1.000000
vn 0.000000 0.000000 -1.000000
vn 0.000000 0.000000 -1.000000
vn -0.866025 0.000000 -0.500000
vn -0.866025 0.000000 -0.500000
vn -0.866025 0.000000 -0.500000
vn -0.866025 0.000000 -0.500000
vn -0.866026 0.000000 0.500000
vn -0.866026 0.000000 0.500000
vn -0.866026 0.000000 0.500000
vn -0.866026 0.000000 0.500000
vn -0.000000 0.000000 1.000000
vn -0.000000 0.000000 1.000000
vn -0.000000 0.000000 1.000000
vn -0.000000 0.000000 1.000000
vn 0.866025 0.000000 0.500000
vn 0.866025 0.000000 0.500000
vn 0.866025 0.000000 0.500000
vn 0.866025 0.000000 0.500000
vn 0.866025 0.000000 -0.500000
vn 0.866025 0.000000 -0.500000
vn 0.866025 0.000000 -0.500000
vn 0.866025 0.000000 -0.500000
vn 0.000000 0.000000 -1.000000
vn 0.000000 0.000000 -1.000000
vn 0.000000 0.000000 -1.000000
vn 0.000000 0.000000 -1.000000
vn -0.866025 0.000000 -0.500000
vn -0.866025 0.000000 -0.500000
vn -0.866025 0.000000 -0.500000
vn -0.866025 0.000000 -0.500000
vn -0.866026 0.000000 0.500000
vn -0.866026 0.000000 0.500000
vn -0.866026 0.000000 0.500000
vn -0.866026 0.000000 0.500000
vn -0.000000 0.000000 1.000000
vn -0.000000 0.000000 1.000000
vn -0.000000 0.000000 1.000000
vn -0.000000 0.000000 1.000000
vn 0.866025 0.000000 0.500000
vn 0.866025 0.000000 0.500000
vn 0.866025 0.000000 0.500000
vn 0.866025 0.000000 0.500000
vn 0.866026 0.000000 -0.500000
vn 0.866026 0.000000 -0.500000
vn 0.866026 0.000000 -0.500000
vn 0.866026 0.000000 -0.500000
vn 0.000000 0.000000 -1.000000
vn 0.000000 0.000000 -1.000000
vn 0.000000 0.000000 -1.000000
vn 0.000000 0.000000 -1.000000
vn -0.866025 0.000000 -0.500000
vn -0.866025 0.000000 -0.500000
vn -0.866025 0.000000 -0.500000
vn -0.866025 0.000000 -0.500000
vn -0.866026 0.000000 0.500000
vn -0.866026 0.000000 0.500000
vn -0.866026 0.000000 0.500000
vn -0.866026 0.000000 0.500000
vn -0.000000 0.000000 1.000000
vn -0.000000 0.000000 1.000000
vn -0.000000 0.000000 1.000000
vn -0.000000 0.000000 1.000000
vn 0.866025 0.000000 0.500000
vn 0.866025 0.000000 0.500000
vn 0.866025 0.000000 0.500000
vn 0.866025 0.000000 0.500000
vn 0.866025 0.000000 -0.500000
vn 0.866025 0.000000 -0.500000
vn 0.866025 0.000000 -0.500000
vn 0.866025 0.000000 -0.500000
s off
g PLAG_Hex_Bldg_12
usemtl lambert2SG
f 1/1/1 2/21/2 8/8/3 7/24/4
f 2/2/5 3/3/6 9/16/7 8/22/8
f 3/15/9 4/19/10 10/10/11 9/9/12
f 4/4/13 5/17/14 11/11/15 10/20/16
f 5/5/17 6/6/18 12/14/19 11/18/20
f 6/13/21 1/23/22 7/7/23 12/12/24
f 13/25/25 14/26/26 20/27/27 19/28/28
f 14/29/29 15/30/30 21/31/31 20/32/32
f 15/33/33 16/34/34 22/35/35 21/36/36
f 16/37/37 17/38/38 23/39/39 22/40/40
f 17/41/41 18/42/42 24/43/43 23/44/44
f 18/45/45 13/46/46 19/47/47 24/48/48
f 25/49/49 26/50/50 32/51/51 31/52/52
f 26/53/53 27/54/54 33/55/55 32/56/56
f 27/57/57 28/58/58 34/59/59 33/60/60
f 28/61/61 29/62/62 35/63/63 34/64/64
f 29/65/65 30/66/66 36/67/67 35/68/68
f 30/69/69 25/70/70 31/71/71 36/72/72
f 37/73/73 38/74/74 44/75/75 43/76/76
f 38/77/77 39/78/78 45/79/79 44/80/80
f 39/81/81 40/82/82 46/83/83 45/84/84
f 40/85/85 41/86/86 47/87/87 46/88/88
f 41/89/89 42/90/90 48/91/91 47/92/92
f 42/93/93 37/94/94 43/95/95 48/96/96
f 49/97/97 50/98/98 56/99/99 55/100/100
f 50/101/101 51/102/102 57/103/103 56/104/104
f 51/105/105 52/106/106 58/107/107 57/108/108
f 52/109/109 53/110/110 59/111/111 58/112/112
f 53/113/113 54/114/114 60/115/115 59/116/116
f 54/117/117 49/118/118 55/119/119 60/120/120
s 1
f 53/121/121 52/122/122 51/123/123 54/124/124
f 50/125/125 49/126/126 54/124/124 51/123/123
s off
f 61/127/127 62/128/128 68/129/129 67/130/130
f 62/131/131 63/132/132 69/133/133 68/134/134
f 63/135/135 64/136/136 70/137/137 69/138/138
f 64/139/139 65/140/140 71/141/141 70/142/142
f 65/143/143 66/144/144 72/145/145 71/146/146
f 66/147/147 61/148/148 67/149/149 72/150/150
s 2
f 69/151/151 70/152/152 71/153/153 72/154/154
f 69/151/151 72/154/154 67/155/155 68/156/156
s off
f 73/157/157 74/158/158 80/159/159 79/160/160
f 74/161/161 75/162/162 81/163/163 80/164/164
f 75/165/165 76/166/166 82/167/167 81/168/168
f 76/169/169 77/170/170 83/171/171 82/172/172
f 77/173/173 78/174/174 84/175/175 83/176/176
f 78/177/177 73/178/178 79/179/179 84/180/180
f 85/181/181 86/182/182 92/183/183 91/184/184
f 86/185/185 87/186/186 93/187/187 92/188/188
f 87/189/189 88/190/190 94/191/191 93/192/192
f 88/193/193 89/194/194 95/195/195 94/196/196
f 89/197/197 90/198/198 96/199/199 95/200/200
f 90/201/201 85/202/202 91/203/203 96/204/204
f 97/205/205 98/206/206 104/207/207 103/208/208
f 98/209/209 99/210/210 105/211/211 104/212/212
f 99/213/213 100/214/214 106/215/215 105/216/216
f 100/217/217 101/218/218 107/219/219 106/220/220
f 101/221/221 102/222/222 108/223/223 107/224/224
f 102/225/225 97/226/226 103/227/227 108/228/228
f 109/229/229 110/230/230 116/231/231 115/232/232
f 110/233/233 111/234/234 117/235/235 116/236/236
f 111/237/237 112/238/238 118/239/239 117/240/240
f 112/241/241 113/242/242 119/243/243 118/244/244
f 113/245/245 114/246/246 120/247/247 119/248/248
f 114/249/249 109/250/250 115/251/251 120/252/252
f 121/253/253 122/254/254 128/255/255 127/256/256
f 122/257/257 123/258/258 129/259/259 128/260/260
f 123/261/261 124/262/262 130/263/263 129/264/264
f 124/265/265 125/266/266 131/267/267 130/268/268
f 125/269/269 126/270/270 132/271/271 131/272/272
f 126/273/273 121/274/274 127/275/275 132/276/276
f 133/277/277 134/278/278 140/279/279 139/280/280
f 134/281/281 135/282/282 141/283/283 140/284/284
f 135/285/285 136/286/286 142/287/287 141/288/288
f 136/289/289 137/290/290 143/291/291 142/292/292
f 137/293/293 138/294/294 144/295/295 143/296/296
f 138/297/297 133/298/298 139/299/299 144/300/300
