# This file uses meters as units for non-parametric coordinates.

mtllib PLAG_SimpleBldg_06.mtl
g default
v 50.000015 0.000000 -86.602531
v -49.999985 0.000000 -86.602554
v -100.000000 0.000000 -0.000015
v -50.000011 0.000000 86.602539
v 49.999996 0.000000 86.602547
v 100.000000 0.000000 -0.000000
v 50.000023 500.000000 -86.602531
v -49.999985 500.000000 -86.602554
v -100.000000 500.000000 -0.000015
v -50.000011 500.000000 86.602539
v 49.999996 500.000000 86.602547
v 100.000000 500.000000 0.000000
v 50.000023 600.000000 -86.602531
v -49.999985 600.000000 -86.602554
v -100.000000 600.000000 -0.000015
v -50.000011 600.000000 86.602539
v 49.999996 600.000000 86.602547
v 100.000000 600.000000 0.000000
v 50.000023 0.000000 -86.602531
v -49.999985 0.000000 -86.602554
v -100.000000 0.000000 -0.000015
v -50.000011 0.000000 86.602539
v 49.999996 0.000000 86.602547
v 100.000000 0.000000 0.000000
v 50.000023 100.000000 -86.602531
v -49.999981 100.000000 -86.602554
v -100.000000 100.000000 -0.000015
v -50.000011 100.000000 86.602539
v 49.999996 100.000000 86.602547
v 100.000000 100.000000 0.000000
v 50.000023 100.000000 -86.602531
v -49.999985 100.000000 -86.602554
v -100.000000 100.000000 -0.000015
v -50.000011 100.000000 86.602539
v 49.999996 100.000000 86.602547
v 100.000000 100.000000 0.000000
v 50.000023 200.000000 -86.602531
v -49.999985 200.000000 -86.602554
v -100.000000 200.000000 -0.000015
v -50.000011 200.000000 86.602539
v 49.999996 200.000000 86.602547
v 100.000000 200.000000 0.000000
v 50.000023 200.000000 -86.602531
v -49.999985 200.000000 -86.602554
v -100.000000 200.000000 -0.000015
v -50.000015 200.000000 86.602539
v 49.999996 200.000000 86.602547
v 100.000000 200.000000 0.000000
v 50.000023 300.000000 -86.602531
v -49.999985 300.000000 -86.602554
v -100.000000 300.000000 -0.000015
v -50.000011 300.000000 86.602539
v 49.999996 300.000000 86.602547
v 100.000000 300.000000 0.000000
v 50.000023 300.000000 -86.602531
v -49.999985 300.000000 -86.602554
v -100.000000 300.000000 -0.000015
v -50.000011 300.000000 86.602539
v 49.999996 300.000000 86.602547
v 100.000000 300.000000 0.000000
v 50.000023 400.000000 -86.602531
v -49.999985 400.000000 -86.602554
v -100.000000 400.000000 -0.000015
v -50.000011 400.000000 86.602539
v 49.999996 400.000000 86.602547
v 100.000000 400.000000 0.000000
v 50.000023 400.000000 -86.602531
v -49.999985 400.000000 -86.602554
v -100.000000 400.000000 -0.000015
v -50.000011 400.000000 86.602539
v 49.999996 400.000000 86.602547
v 100.000000 400.000000 0.000000
v 50.000023 500.000000 -86.602531
v -49.999985 500.000000 -86.602554
v -100.000000 500.000000 -0.000015
v -50.000011 500.000000 86.602539
v 49.999996 500.000000 86.602547
v 100.000000 500.000000 0.000000
v 51.768894 200.000000 -83.538757
v -48.231113 200.000061 -86.602562
v -48.231113 300.000000 -86.602562
v 51.768894 300.000000 -83.538757
v 51.768894 400.000000 -83.538757
v -48.231113 400.000122 -86.602562
v -48.231113 500.000000 -86.602562
v 51.768894 500.000000 -83.538757
vt 0.150000 0.586603
vt 0.050000 0.586603
vt 0.000000 0.500000
vt 0.200000 0.500000
vt 0.050000 0.413397
vt 0.150000 0.413397
vt 0.000000 0.000000
vt 0.200000 0.000000
vt 0.200000 0.200000
vt 0.000000 0.200000
vt 0.000000 0.800000
vt 0.200000 0.800000
vt 0.200000 1.000000
vt 0.000000 1.000000
vt 0.000000 0.800000
vt 0.200000 0.800000
vt 0.200000 1.000000
vt 0.000000 1.000000
vt 0.000000 0.000000
vt 0.200000 0.000000
vt 0.200000 0.200000
vt 0.000000 0.200000
vt 0.000000 0.800000
vt 0.200000 0.800000
vt 0.200000 1.000000
vt 0.000000 1.000000
vt 0.000000 0.800000
vt 0.200000 0.800000
vt 0.200000 1.000000
vt 0.000000 1.000000
vt 0.050000 0.413397
vt 0.150000 0.413397
vt 0.200000 0.500000
vt 0.150000 0.586603
vt 0.050000 0.586603
vt 0.000000 0.500000
vt 0.000000 0.196935
vt 0.200000 0.196935
vt 0.200000 0.000000
vt 0.000000 0.000000
vt 0.200000 1.000000
vt 0.000000 1.000000
vt 0.000000 0.799767
vt 0.200000 0.799767
vt 0.000000 1.000000
vt 0.200000 1.000000
vt 0.200000 0.799767
vt 0.000000 0.799767
vt 0.000000 0.195913
vt 0.200000 0.195913
vt 0.200000 0.000000
vt 0.000000 0.000000
vt 0.200000 1.000000
vt 0.000000 1.000000
vt 0.000000 0.800857
vt 0.200000 0.800857
vt 0.000000 1.000000
vt 0.200000 1.000000
vt 0.200000 0.800857
vt 0.000000 0.800857
vt 0.800000 0.200206
vt 1.000000 0.200206
vt 1.000000 0.400206
vt 0.800000 0.400206
vt 0.600155 0.200000
vt 0.400155 0.200000
vt 0.400155 0.400000
vt 0.600155 0.400000
vt 0.400130 0.200000
vt 0.600130 0.200000
vt 0.600130 0.400000
vt 0.400130 0.400000
vt 0.800000 0.200000
vt 1.000000 0.200000
vt 1.000000 0.400000
vt 0.800000 0.400000
vt 0.600060 0.200000
vt 0.400060 0.200000
vt 0.400060 0.400000
vt 0.600060 0.400000
vt 0.400373 0.200000
vt 0.600373 0.200000
vt 0.600373 0.400000
vt 0.400373 0.400000
vt 0.800000 0.400000
vt 1.000000 0.400000
vt 1.000000 0.600000
vt 0.800000 0.600000
vt 0.600155 0.400000
vt 0.400155 0.400000
vt 0.400155 0.600000
vt 0.600155 0.600000
vt 0.400130 0.400000
vt 0.600130 0.400000
vt 0.600130 0.600000
vt 0.400130 0.600000
vt 0.800000 0.400000
vt 1.000000 0.400000
vt 1.000000 0.600000
vt 0.800000 0.600000
vt 0.600060 0.400000
vt 0.400060 0.400000
vt 0.400060 0.600000
vt 0.600060 0.600000
vt 0.400373 0.400000
vt 0.600373 0.400000
vt 0.600373 0.600000
vt 0.400373 0.600000
vt 0.799488 0.600000
vt 0.999488 0.600000
vt 0.999488 0.800000
vt 0.799488 0.800000
vt 0.600155 0.600000
vt 0.400155 0.600000
vt 0.400155 0.800000
vt 0.600155 0.800000
vt 0.400130 0.600000
vt 0.600130 0.600000
vt 0.600130 0.800000
vt 0.400130 0.800000
vt 0.800000 0.600000
vt 1.000000 0.600000
vt 1.000000 0.800000
vt 0.800000 0.800000
vt 0.600060 0.600000
vt 0.400060 0.600000
vt 0.400060 0.800000
vt 0.600060 0.800000
vt 0.400373 0.600000
vt 0.600373 0.600000
vt 0.600373 0.800000
vt 0.400373 0.800000
vt 0.800000 0.800000
vt 1.000000 0.800000
vt 1.000000 1.000000
vt 0.800000 1.000000
vt 0.600155 0.800000
vt 0.400155 0.800000
vt 0.400155 1.000000
vt 0.600155 1.000000
vt 0.400130 0.800000
vt 0.600130 0.800000
vt 0.600130 1.000000
vt 0.400130 1.000000
vt 0.800000 0.800000
vt 1.000000 0.800000
vt 1.000000 1.000000
vt 0.800000 1.000000
vt 0.600060 0.800000
vt 0.400060 0.800000
vt 0.400060 1.000000
vt 0.600060 1.000000
vt 0.400000 0.800000
vt 0.600000 0.800000
vt 0.600000 1.000000
vt 0.400000 1.000000
vn 0.000000 -1.000000 0.000000
vn 0.000000 -1.000000 0.000000
vn 0.000000 -1.000000 0.000000
vn 0.000000 -1.000000 0.000000
vn 0.000000 -1.000000 0.000000
vn 0.000000 -1.000000 0.000000
vn 0.000000 0.000000 -1.000000
vn 0.000000 0.000000 -1.000000
vn 0.000000 0.000000 -1.000000
vn 0.000000 0.000000 -1.000000
vn -0.866025 0.000000 -0.500000
vn -0.866025 0.000000 -0.500000
vn -0.866025 0.000000 -0.500000
vn -0.866025 0.000000 -0.500000
vn -0.866026 0.000000 0.500000
vn -0.866026 0.000000 0.500000
vn -0.866026 0.000000 0.500000
vn -0.866026 0.000000 0.500000
vn -0.000000 0.000000 1.000000
vn -0.000000 0.000000 1.000000
vn -0.000000 0.000000 1.000000
vn -0.000000 0.000000 1.000000
vn 0.866025 0.000000 0.500000
vn 0.866025 0.000000 0.500000
vn 0.866025 0.000000 0.500000
vn 0.866025 0.000000 0.500000
vn 0.866026 0.000000 -0.500000
vn 0.866026 0.000000 -0.500000
vn 0.866026 0.000000 -0.500000
vn 0.866026 0.000000 -0.500000
vn 0.000000 1.000000 -0.000000
vn 0.000000 1.000000 0.000000
vn 0.000000 1.000000 0.000000
vn 0.000000 1.000000 -0.000000
vn 0.000000 1.000000 -0.000000
vn 0.000000 1.000000 -0.000000
vn 0.000000 -0.000000 -1.000000
vn 0.000000 -0.000000 -1.000000
vn 0.000000 -0.000000 -1.000000
vn 0.000000 -0.000000 -1.000000
vn -0.866025 0.000000 -0.500000
vn -0.866025 0.000000 -0.500000
vn -0.866025 0.000000 -0.500000
vn -0.866025 0.000000 -0.500000
vn -0.866026 0.000000 0.500000
vn -0.866026 0.000000 0.500000
vn -0.866026 0.000000 0.500000
vn -0.866026 0.000000 0.500000
vn -0.000000 0.000000 1.000000
vn -0.000000 0.000000 1.000000
vn -0.000000 0.000000 1.000000
vn -0.000000 0.000000 1.000000
vn 0.866025 0.000000 0.500000
vn 0.866025 0.000000 0.500000
vn 0.866025 0.000000 0.500000
vn 0.866025 0.000000 0.500000
vn 0.866026 0.000000 -0.500000
vn 0.866026 0.000000 -0.500000
vn 0.866026 0.000000 -0.500000
vn 0.866026 0.000000 -0.500000
vn 0.000000 0.000000 -1.000000
vn 0.000000 0.000000 -1.000000
vn 0.000000 0.000000 -1.000000
vn 0.000000 0.000000 -1.000000
vn -0.866025 0.000000 -0.500000
vn -0.866025 0.000000 -0.500000
vn -0.866025 0.000000 -0.500000
vn -0.866025 0.000000 -0.500000
vn -0.866026 0.000000 0.500000
vn -0.866026 0.000000 0.500000
vn -0.866026 0.000000 0.500000
vn -0.866026 0.000000 0.500000
vn -0.000000 0.000000 1.000000
vn -0.000000 0.000000 1.000000
vn -0.000000 0.000000 1.000000
vn -0.000000 0.000000 1.000000
vn 0.866025 0.000000 0.500000
vn 0.866025 0.000000 0.500000
vn 0.866025 0.000000 0.500000
vn 0.866025 0.000000 0.500000
vn 0.866026 0.000000 -0.500000
vn 0.866026 0.000000 -0.500000
vn 0.866026 0.000000 -0.500000
vn 0.866026 0.000000 -0.500000
vn 0.030624 0.000000 -0.999531
vn 0.030624 0.000000 -0.999531
vn 0.030624 0.000000 -0.999531
vn 0.030624 0.000000 -0.999531
vn -0.866025 0.000000 -0.500000
vn -0.866025 0.000000 -0.500000
vn -0.866025 0.000000 -0.500000
vn -0.866025 0.000000 -0.500000
vn -0.866026 0.000000 0.500000
vn -0.866026 0.000000 0.500000
vn -0.866026 0.000000 0.500000
vn -0.866026 0.000000 0.500000
vn -0.000000 0.000000 1.000000
vn -0.000000 0.000000 1.000000
vn -0.000000 0.000000 1.000000
vn -0.000000 0.000000 1.000000
vn 0.866025 0.000000 0.500000
vn 0.866025 0.000000 0.500000
vn 0.866025 0.000000 0.500000
vn 0.866025 0.000000 0.500000
vn 0.866026 0.000000 -0.500000
vn 0.866026 0.000000 -0.500000
vn 0.866026 0.000000 -0.500000
vn 0.866026 0.000000 -0.500000
vn 0.000000 0.000000 -1.000000
vn 0.000000 0.000000 -1.000000
vn 0.000000 0.000000 -1.000000
vn 0.000000 0.000000 -1.000000
vn -0.866025 0.000000 -0.500000
vn -0.866025 0.000000 -0.500000
vn -0.866025 0.000000 -0.500000
vn -0.866025 0.000000 -0.500000
vn -0.866026 0.000000 0.500000
vn -0.866026 0.000000 0.500000
vn -0.866026 0.000000 0.500000
vn -0.866026 0.000000 0.500000
vn -0.000000 0.000000 1.000000
vn -0.000000 0.000000 1.000000
vn -0.000000 0.000000 1.000000
vn -0.000000 0.000000 1.000000
vn 0.866025 0.000000 0.500000
vn 0.866025 0.000000 0.500000
vn 0.866025 0.000000 0.500000
vn 0.866025 0.000000 0.500000
vn 0.866026 0.000000 -0.500000
vn 0.866026 0.000000 -0.500000
vn 0.866026 0.000000 -0.500000
vn 0.866026 0.000000 -0.500000
vn 0.030624 0.000000 -0.999531
vn 0.030624 0.000000 -0.999531
vn 0.030624 0.000000 -0.999531
vn 0.030624 0.000000 -0.999531
vn -0.866025 0.000000 -0.500000
vn -0.866025 0.000000 -0.500000
vn -0.866025 0.000000 -0.500000
vn -0.866025 0.000000 -0.500000
vn -0.866026 0.000000 0.500000
vn -0.866026 0.000000 0.500000
vn -0.866026 0.000000 0.500000
vn -0.866026 0.000000 0.500000
vn -0.000000 0.000000 1.000000
vn -0.000000 0.000000 1.000000
vn -0.000000 0.000000 1.000000
vn -0.000000 0.000000 1.000000
vn 0.866025 0.000000 0.500000
vn 0.866025 0.000000 0.500000
vn 0.866025 0.000000 0.500000
vn 0.866025 0.000000 0.500000
vn 0.866026 0.000000 -0.500000
vn 0.866026 0.000000 -0.500000
vn 0.866026 0.000000 -0.500000
vn 0.866026 0.000000 -0.500000
vn 0.000001 1.000000 -0.000008
vn 0.000000 0.000000 -0.000000
vn 0.000001 1.000000 -0.000008
vn 0.000001 1.000000 -0.000008
vn -0.000002 0.000000 -1.000000
vn -0.000002 0.000000 -1.000000
vn -0.000002 0.000000 -1.000000
vn -0.000002 0.000000 -1.000000
vn 0.000000 -0.000000 -0.000000
vn 0.000000 -1.000000 -0.000005
vn 0.000000 -1.000000 -0.000005
vn 0.000000 -1.000000 -0.000005
vn -0.866025 0.000000 0.500001
vn -0.866025 0.000000 0.500001
vn -0.866025 0.000000 0.500001
vn -0.866025 0.000000 0.500001
vn 0.000001 1.000000 -0.000015
vn 0.000000 0.000000 -0.000000
vn 0.000001 1.000000 -0.000015
vn 0.000001 1.000000 -0.000015
vn -0.000005 0.000000 -1.000000
vn -0.000005 0.000000 -1.000000
vn -0.000005 0.000000 -1.000000
vn -0.000005 0.000000 -1.000000
vn 0.000000 -0.000000 -0.000000
vn 0.000000 -1.000000 -0.000012
vn 0.000000 -1.000000 -0.000012
vn 0.000000 -1.000000 -0.000012
vn -0.866025 0.000000 0.500001
vn -0.866025 0.000000 0.500001
vn -0.866025 0.000000 0.500001
vn -0.866025 0.000000 0.500001
s 1
g PLAG_SimpleBldg_06
usemtl lambert2SG
f 5/1/1 4/2/2 3/3/3 6/4/4
f 2/5/5 1/6/6 6/4/4 3/3/3
s off
f 7/7/7 8/8/8 14/9/9 13/10/10
f 8/11/11 9/12/12 15/13/13 14/14/14
f 9/15/15 10/16/16 16/17/17 15/18/18
f 10/19/19 11/20/20 17/21/21 16/22/22
f 11/23/23 12/24/24 18/25/25 17/26/26
f 12/27/27 7/28/28 13/29/29 18/30/30
s 2
f 15/31/31 16/32/32 17/33/33 18/34/34
f 15/31/31 18/34/34 13/35/35 14/36/36
s off
f 19/37/37 20/38/38 26/39/39 25/40/40
f 20/41/41 21/42/42 27/43/43 26/44/44
f 21/45/45 22/46/46 28/47/47 27/48/48
f 22/49/49 23/50/50 29/51/51 28/52/52
f 23/53/53 24/54/54 30/55/55 29/56/56
f 24/57/57 19/58/58 25/59/59 30/60/60
f 31/61/61 32/62/62 38/63/63 37/64/64
f 32/65/65 33/66/66 39/67/67 38/68/68
f 33/69/69 34/70/70 40/71/71 39/72/72
f 34/73/73 35/74/74 41/75/75 40/76/76
f 35/77/77 36/78/78 42/79/79 41/80/80
f 36/81/81 31/82/82 37/83/83 42/84/84
f 79/85/85 80/86/86 81/87/87 82/88/88
f 44/89/89 45/90/90 51/91/91 50/92/92
f 45/93/93 46/94/94 52/95/95 51/96/96
f 46/97/97 47/98/98 53/99/99 52/100/100
f 47/101/101 48/102/102 54/103/103 53/104/104
f 48/105/105 43/106/106 49/107/107 54/108/108
f 55/109/109 56/110/110 62/111/111 61/112/112
f 56/113/113 57/114/114 63/115/115 62/116/116
f 57/117/117 58/118/118 64/119/119 63/120/120
f 58/121/121 59/122/122 65/123/123 64/124/124
f 59/125/125 60/126/126 66/127/127 65/128/128
f 60/129/129 55/130/130 61/131/131 66/132/132
f 83/133/133 84/134/134 85/135/135 86/136/136
f 68/137/137 69/138/138 75/139/139 74/140/140
f 69/141/141 70/142/142 76/143/143 75/144/144
f 70/145/145 71/146/146 77/147/147 76/148/148
f 71/149/149 72/150/150 78/151/151 77/152/152
f 72/153/153 67/154/154 73/155/155 78/156/156
f 43//157 44//158 80//159 79//160
f 44//161 50//162 81//163 80//164
f 50//165 49//166 82//167 81//168
f 49//169 43//170 79//171 82//172
f 67//173 68//174 84//175 83//176
f 68//177 74//178 85//179 84//180
f 74//181 73//182 86//183 85//184
f 73//185 67//186 83//187 86//188
