# This file uses meters as units for non-parametric coordinates.

mtllib PLAG_SimpleBldg_07.mtl
g default
v 50.000023 600.000000 -86.602531
v -49.999985 600.000000 -86.602554
v -100.000000 600.000000 -0.000015
v -50.000011 600.000000 86.602539
v 49.999996 600.000000 86.602547
v 100.000000 600.000000 0.000000
v 50.000023 700.000000 -86.602531
v -49.999985 700.000000 -86.602554
v -100.000000 700.000000 -0.000015
v -50.000011 700.000000 86.602539
v 49.999996 700.000000 86.602547
v 100.000000 700.000000 0.000000
v 50.000023 0.000000 -86.602531
v -49.999985 0.000000 -86.602554
v -100.000000 0.000000 -0.000015
v -50.000011 0.000000 86.602539
v 49.999996 0.000000 86.602547
v 100.000000 0.000000 0.000000
v 50.000023 100.000000 -86.602531
v -49.999985 100.000000 -86.602554
v -100.000000 100.000000 -0.000015
v -50.000011 100.000000 86.602539
v 49.999996 100.000000 86.602547
v 100.000000 100.000000 0.000000
v 50.000023 100.000000 -86.602531
v -49.999985 100.000000 -86.602554
v -100.000000 100.000000 -0.000015
v -50.000011 100.000000 86.602539
v 49.999996 100.000000 86.602547
v 100.000000 100.000000 0.000000
v 50.000023 200.000000 -86.602531
v -49.999981 200.000000 -86.602554
v -100.000000 200.000000 -0.000015
v -50.000011 200.000000 86.602539
v 49.999996 200.000000 86.602547
v 100.000000 200.000000 0.000000
v 50.000023 200.000000 -86.602531
v -49.999985 200.000000 -86.602554
v -100.000000 200.000000 -0.000015
v -50.000011 200.000000 86.602539
v 49.999996 200.000000 86.602547
v 100.000000 200.000000 0.000000
v 50.000023 300.000000 -86.602531
v -49.999985 300.000000 -86.602554
v -100.000000 300.000000 -0.000015
v -50.000011 300.000000 86.602539
v 49.999996 300.000000 86.602547
v 100.000000 300.000000 0.000000
v 50.000023 300.000000 -86.602531
v -49.999985 300.000000 -86.602554
v -100.000000 300.000000 -0.000015
v -50.000015 300.000000 86.602539
v 49.999996 300.000000 86.602547
v 100.000000 300.000000 0.000000
v 50.000023 400.000000 -86.602531
v -49.999985 400.000000 -86.602554
v -100.000000 400.000000 -0.000015
v -50.000011 400.000000 86.602539
v 49.999996 400.000000 86.602547
v 100.000000 400.000000 0.000000
v 50.000023 400.000000 -86.602531
v -49.999985 400.000000 -86.602554
v -100.000000 400.000000 -0.000015
v -50.000011 400.000000 86.602539
v 49.999996 400.000000 86.602547
v 100.000000 400.000000 0.000000
v 50.000023 500.000000 -86.602531
v -49.999985 500.000000 -86.602554
v -100.000000 500.000000 -0.000015
v -50.000011 500.000000 86.602539
v 49.999996 500.000000 86.602547
v 100.000000 500.000000 0.000000
v 50.000023 500.000000 -86.602531
v -49.999985 500.000000 -86.602554
v -100.000000 500.000000 -0.000015
v -50.000011 500.000000 86.602539
v 49.999996 500.000000 86.602547
v 100.000000 500.000000 0.000000
v 50.000023 600.000000 -86.602531
v -49.999985 600.000000 -86.602554
v -100.000000 600.000000 -0.000015
v -50.000011 600.000000 86.602539
v 49.999996 600.000000 86.602547
v 100.000000 600.000000 0.000000
v 51.768894 300.000000 -83.538757
v -48.231113 300.000061 -86.602562
v -48.231113 400.000000 -86.602562
v 51.768894 400.000000 -83.538757
v 51.768894 500.000000 -83.538757
v -48.231113 500.000122 -86.602562
v -48.231113 600.000000 -86.602562
v 51.768894 600.000000 -83.538757
v 50.000015 0.000000 -86.602531
v -49.999985 0.000000 -86.602554
v -100.000000 0.000000 -0.000015
v -50.000011 0.000000 86.602539
v 49.999996 0.000000 86.602547
v 100.000000 0.000000 -0.000000
vt 0.000000 0.000000
vt 0.200000 0.000000
vt 0.200000 0.200000
vt 0.000000 0.200000
vt 0.000000 0.800000
vt 0.200000 0.800000
vt 0.200000 1.000000
vt 0.000000 1.000000
vt 0.000000 0.800000
vt 0.200000 0.800000
vt 0.200000 1.000000
vt 0.000000 1.000000
vt 0.000000 0.000000
vt 0.200000 0.000000
vt 0.200000 0.200000
vt 0.000000 0.200000
vt 0.000000 0.800000
vt 0.200000 0.800000
vt 0.200000 1.000000
vt 0.000000 1.000000
vt 0.000000 0.800000
vt 0.200000 0.800000
vt 0.200000 1.000000
vt 0.000000 1.000000
vt 0.050000 0.413397
vt 0.150000 0.413397
vt 0.200000 0.500000
vt 0.150000 0.586603
vt 0.050000 0.586603
vt 0.000000 0.500000
vt 0.000000 0.196935
vt 0.200000 0.196935
vt 0.200000 0.000000
vt 0.000000 0.000000
vt 0.200000 1.000000
vt 0.000000 1.000000
vt 0.000000 0.812261
vt 0.200000 0.812261
vt 0.000000 1.000000
vt 0.200000 1.000000
vt 0.200000 0.812261
vt 0.000000 0.812261
vt 0.000000 0.195913
vt 0.200000 0.195913
vt 0.200000 0.000000
vt 0.000000 0.000000
vt 0.200000 1.000000
vt 0.000000 1.000000
vt 0.000000 0.813282
vt 0.200000 0.813282
vt 0.000000 1.000000
vt 0.200000 1.000000
vt 0.200000 0.813282
vt 0.000000 0.813282
vt 0.800000 0.007663
vt 1.000000 0.007663
vt 1.000000 0.204598
vt 0.800000 0.204598
vt 0.600155 0.006638
vt 0.400155 0.006638
vt 0.400155 0.194377
vt 0.600155 0.194377
vt 0.400130 0.006638
vt 0.600130 0.006638
vt 0.600130 0.194377
vt 0.400130 0.194377
vt 0.800000 0.010213
vt 1.000000 0.010213
vt 1.000000 0.206127
vt 0.800000 0.206127
vt 0.600060 0.006641
vt 0.400060 0.006641
vt 0.400060 0.193359
vt 0.600060 0.193359
vt 0.400373 0.006641
vt 0.600373 0.006641
vt 0.600373 0.193359
vt 0.400373 0.193359
vt 0.800000 0.200206
vt 1.000000 0.200206
vt 1.000000 0.400206
vt 0.800000 0.400206
vt 0.600155 0.200000
vt 0.400155 0.200000
vt 0.400155 0.400000
vt 0.600155 0.400000
vt 0.400130 0.200000
vt 0.600130 0.200000
vt 0.600130 0.400000
vt 0.400130 0.400000
vt 0.800000 0.200000
vt 1.000000 0.200000
vt 1.000000 0.400000
vt 0.800000 0.400000
vt 0.600060 0.200000
vt 0.400060 0.200000
vt 0.400060 0.400000
vt 0.600060 0.400000
vt 0.400373 0.200000
vt 0.600373 0.200000
vt 0.600373 0.400000
vt 0.400373 0.400000
vt 0.800000 0.400000
vt 1.000000 0.400000
vt 1.000000 0.600000
vt 0.800000 0.600000
vt 0.600155 0.400000
vt 0.400155 0.400000
vt 0.400155 0.600000
vt 0.600155 0.600000
vt 0.400130 0.400000
vt 0.600130 0.400000
vt 0.600130 0.600000
vt 0.400130 0.600000
vt 0.800000 0.400000
vt 1.000000 0.400000
vt 1.000000 0.600000
vt 0.800000 0.600000
vt 0.600060 0.400000
vt 0.400060 0.400000
vt 0.400060 0.600000
vt 0.600060 0.600000
vt 0.400373 0.400000
vt 0.600373 0.400000
vt 0.600373 0.600000
vt 0.400373 0.600000
vt 0.799488 0.600000
vt 0.999488 0.600000
vt 0.999488 0.800000
vt 0.799488 0.800000
vt 0.600155 0.600000
vt 0.400155 0.600000
vt 0.400155 0.800000
vt 0.600155 0.800000
vt 0.400130 0.600000
vt 0.600130 0.600000
vt 0.600130 0.800000
vt 0.400130 0.800000
vt 0.800000 0.600000
vt 1.000000 0.600000
vt 1.000000 0.800000
vt 0.800000 0.800000
vt 0.600060 0.600000
vt 0.400060 0.600000
vt 0.400060 0.800000
vt 0.600060 0.800000
vt 0.400373 0.600000
vt 0.600373 0.600000
vt 0.600373 0.800000
vt 0.400373 0.800000
vt 0.800000 0.800000
vt 1.000000 0.800000
vt 1.000000 1.000000
vt 0.800000 1.000000
vt 0.600155 0.800000
vt 0.400155 0.800000
vt 0.400155 1.000000
vt 0.600155 1.000000
vt 0.400130 0.800000
vt 0.600130 0.800000
vt 0.600130 1.000000
vt 0.400130 1.000000
vt 0.800000 0.800000
vt 1.000000 0.800000
vt 1.000000 1.000000
vt 0.800000 1.000000
vt 0.600060 0.800000
vt 0.400060 0.800000
vt 0.400060 1.000000
vt 0.600060 1.000000
vt 0.400000 0.800000
vt 0.600000 0.800000
vt 0.600000 1.000000
vt 0.400000 1.000000
vt 0.150000 0.586603
vt 0.050000 0.586603
vt 0.000000 0.500000
vt 0.200000 0.500000
vt 0.050000 0.413397
vt 0.150000 0.413397
vn 0.000000 0.000000 -1.000000
vn 0.000000 0.000000 -1.000000
vn 0.000000 0.000000 -1.000000
vn 0.000000 0.000000 -1.000000
vn -0.866025 0.000000 -0.500000
vn -0.866025 0.000000 -0.500000
vn -0.866025 0.000000 -0.500000
vn -0.866025 0.000000 -0.500000
vn -0.866026 0.000000 0.500000
vn -0.866026 0.000000 0.500000
vn -0.866026 0.000000 0.500000
vn -0.866026 0.000000 0.500000
vn -0.000000 0.000000 1.000000
vn -0.000000 0.000000 1.000000
vn -0.000000 0.000000 1.000000
vn -0.000000 0.000000 1.000000
vn 0.866025 0.000000 0.500000
vn 0.866025 0.000000 0.500000
vn 0.866025 0.000000 0.500000
vn 0.866025 0.000000 0.500000
vn 0.866026 0.000000 -0.500000
vn 0.866026 0.000000 -0.500000
vn 0.866026 0.000000 -0.500000
vn 0.866026 0.000000 -0.500000
vn 0.000000 1.000000 0.000000
vn 0.000000 1.000000 0.000000
vn 0.000000 1.000000 0.000000
vn 0.000000 1.000000 0.000000
vn 0.000000 1.000000 0.000000
vn 0.000000 1.000000 0.000000
vn 0.000000 0.000000 -1.000000
vn 0.000000 0.000000 -1.000000
vn 0.000000 0.000000 -1.000000
vn 0.000000 0.000000 -1.000000
vn -0.866025 0.000000 -0.500000
vn -0.866025 0.000000 -0.500000
vn -0.866025 0.000000 -0.500000
vn -0.866025 0.000000 -0.500000
vn -0.866026 0.000000 0.500000
vn -0.866026 0.000000 0.500000
vn -0.866026 0.000000 0.500000
vn -0.866026 0.000000 0.500000
vn -0.000000 0.000000 1.000000
vn -0.000000 0.000000 1.000000
vn -0.000000 0.000000 1.000000
vn -0.000000 0.000000 1.000000
vn 0.866025 0.000000 0.500000
vn 0.866025 0.000000 0.500000
vn 0.866025 0.000000 0.500000
vn 0.866025 0.000000 0.500000
vn 0.866026 0.000000 -0.500000
vn 0.866026 0.000000 -0.500000
vn 0.866026 0.000000 -0.500000
vn 0.866026 0.000000 -0.500000
vn 0.000000 -0.000000 -1.000000
vn 0.000000 -0.000000 -1.000000
vn 0.000000 -0.000000 -1.000000
vn 0.000000 -0.000000 -1.000000
vn -0.866025 0.000000 -0.500000
vn -0.866025 0.000000 -0.500000
vn -0.866025 0.000000 -0.500000
vn -0.866025 0.000000 -0.500000
vn -0.866026 0.000000 0.500000
vn -0.866026 0.000000 0.500000
vn -0.866026 0.000000 0.500000
vn -0.866026 0.000000 0.500000
vn -0.000000 0.000000 1.000000
vn -0.000000 0.000000 1.000000
vn -0.000000 0.000000 1.000000
vn -0.000000 0.000000 1.000000
vn 0.866025 0.000000 0.500000
vn 0.866025 0.000000 0.500000
vn 0.866025 0.000000 0.500000
vn 0.866025 0.000000 0.500000
vn 0.866026 0.000000 -0.500000
vn 0.866026 0.000000 -0.500000
vn 0.866026 0.000000 -0.500000
vn 0.866026 0.000000 -0.500000
vn 0.000000 0.000000 -1.000000
vn 0.000000 0.000000 -1.000000
vn 0.000000 0.000000 -1.000000
vn 0.000000 0.000000 -1.000000
vn -0.866025 0.000000 -0.500000
vn -0.866025 0.000000 -0.500000
vn -0.866025 0.000000 -0.500000
vn -0.866025 0.000000 -0.500000
vn -0.866026 0.000000 0.500000
vn -0.866026 0.000000 0.500000
vn -0.866026 0.000000 0.500000
vn -0.866026 0.000000 0.500000
vn -0.000000 0.000000 1.000000
vn -0.000000 0.000000 1.000000
vn -0.000000 0.000000 1.000000
vn -0.000000 0.000000 1.000000
vn 0.866025 0.000000 0.500000
vn 0.866025 0.000000 0.500000
vn 0.866025 0.000000 0.500000
vn 0.866025 0.000000 0.500000
vn 0.866026 0.000000 -0.500000
vn 0.866026 0.000000 -0.500000
vn 0.866026 0.000000 -0.500000
vn 0.866026 0.000000 -0.500000
vn 0.030624 0.000000 -0.999531
vn 0.030624 0.000000 -0.999531
vn 0.030624 0.000000 -0.999531
vn 0.030624 0.000000 -0.999531
vn -0.866025 0.000000 -0.500000
vn -0.866025 0.000000 -0.500000
vn -0.866025 0.000000 -0.500000
vn -0.866025 0.000000 -0.500000
vn -0.866026 0.000000 0.500000
vn -0.866026 0.000000 0.500000
vn -0.866025 0.000000 0.500000
vn -0.866026 0.000000 0.500000
vn -0.000000 0.000000 1.000000
vn -0.000000 0.000000 1.000000
vn -0.000000 0.000000 1.000000
vn -0.000000 0.000000 1.000000
vn 0.866025 0.000000 0.500000
vn 0.866025 0.000000 0.500000
vn 0.866025 0.000000 0.500000
vn 0.866025 0.000000 0.500000
vn 0.866026 0.000000 -0.500000
vn 0.866026 0.000000 -0.500000
vn 0.866026 0.000000 -0.500000
vn 0.866026 0.000000 -0.500000
vn 0.000000 0.000000 -1.000000
vn 0.000000 0.000000 -1.000000
vn 0.000000 0.000000 -1.000000
vn 0.000000 0.000000 -1.000000
vn -0.866025 0.000000 -0.500000
vn -0.866025 0.000000 -0.500000
vn -0.866025 0.000000 -0.500000
vn -0.866025 0.000000 -0.500000
vn -0.866026 0.000000 0.500000
vn -0.866026 0.000000 0.500000
vn -0.866026 0.000000 0.500000
vn -0.866026 0.000000 0.500000
vn -0.000000 0.000000 1.000000
vn -0.000000 0.000000 1.000000
vn -0.000000 0.000000 1.000000
vn -0.000000 0.000000 1.000000
vn 0.866025 0.000000 0.500000
vn 0.866025 0.000000 0.500000
vn 0.866025 0.000000 0.500000
vn 0.866025 0.000000 0.500000
vn 0.866026 0.000000 -0.500000
vn 0.866026 0.000000 -0.500000
vn 0.866026 0.000000 -0.500000
vn 0.866026 0.000000 -0.500000
vn 0.030624 0.000000 -0.999531
vn 0.030624 0.000000 -0.999531
vn 0.030624 0.000000 -0.999531
vn 0.030624 0.000000 -0.999531
vn -0.866025 0.000000 -0.500000
vn -0.866025 0.000000 -0.500000
vn -0.866025 0.000000 -0.500000
vn -0.866025 0.000000 -0.500000
vn -0.866026 0.000000 0.500000
vn -0.866026 0.000000 0.500000
vn -0.866026 0.000000 0.500000
vn -0.866026 0.000000 0.500000
vn -0.000000 0.000000 1.000000
vn -0.000000 0.000000 1.000000
vn -0.000000 0.000000 1.000000
vn -0.000000 0.000000 1.000000
vn 0.866025 0.000000 0.500000
vn 0.866025 0.000000 0.500000
vn 0.866025 0.000000 0.500000
vn 0.866025 0.000000 0.500000
vn 0.866026 0.000000 -0.500000
vn 0.866026 0.000000 -0.500000
vn 0.866026 0.000000 -0.500000
vn 0.866026 0.000000 -0.500000
vn 0.000001 1.000000 -0.000031
vn 0.000000 0.000000 -0.000000
vn 0.000001 1.000000 -0.000031
vn 0.000001 1.000000 -0.000031
vn -0.000002 0.000000 -1.000000
vn -0.000002 0.000000 -1.000000
vn -0.000002 0.000000 -1.000000
vn -0.000002 0.000000 -1.000000
vn 0.000000 -0.000000 0.000000
vn 0.000000 -1.000000 0.000011
vn 0.000000 -1.000000 0.000011
vn 0.000000 -1.000000 0.000011
vn -0.866025 0.000000 0.500001
vn -0.866025 0.000000 0.500001
vn -0.866025 0.000000 0.500001
vn -0.866025 0.000000 0.500001
vn 0.000001 1.000000 -0.000064
vn 0.000000 0.000000 -0.000000
vn 0.000001 1.000000 -0.000064
vn 0.000001 1.000000 -0.000064
vn -0.000005 0.000000 -1.000000
vn -0.000005 0.000000 -1.000000
vn -0.000005 0.000000 -1.000000
vn -0.000005 0.000000 -1.000000
vn 0.000000 -0.000000 -0.000000
vn 0.000000 -1.000000 -0.000010
vn 0.000000 -1.000000 -0.000010
vn 0.000000 -1.000000 -0.000010
vn -0.866025 0.000000 0.500001
vn -0.866025 0.000000 0.500001
vn -0.866025 0.000000 0.500001
vn -0.866025 0.000000 0.500001
vn 0.000000 -1.000000 0.000000
vn 0.000000 -1.000000 0.000000
vn 0.000000 -1.000000 0.000000
vn 0.000000 -1.000000 0.000000
vn 0.000000 -1.000000 0.000000
vn 0.000000 -1.000000 0.000000
s off
g PLAG_SimpleBldg_07
usemtl lambert2SG
f 1/1/1 2/2/2 8/3/3 7/4/4
f 2/5/5 3/6/6 9/7/7 8/8/8
f 3/9/9 4/10/10 10/11/11 9/12/12
f 4/13/13 5/14/14 11/15/15 10/16/16
f 5/17/17 6/18/18 12/19/19 11/20/20
f 6/21/21 1/22/22 7/23/23 12/24/24
s 1
f 9/25/25 10/26/26 11/27/27 12/28/28
f 9/25/25 12/28/28 7/29/29 8/30/30
s off
f 13/31/31 14/32/32 20/33/33 19/34/34
f 14/35/35 15/36/36 21/37/37 20/38/38
f 15/39/39 16/40/40 22/41/41 21/42/42
f 16/43/43 17/44/44 23/45/45 22/46/46
f 17/47/47 18/48/48 24/49/49 23/50/50
f 18/51/51 13/52/52 19/53/53 24/54/54
f 25/55/55 26/56/56 32/57/57 31/58/58
f 26/59/59 27/60/60 33/61/61 32/62/62
f 27/63/63 28/64/64 34/65/65 33/66/66
f 28/67/67 29/68/68 35/69/69 34/70/70
f 29/71/71 30/72/72 36/73/73 35/74/74
f 30/75/75 25/76/76 31/77/77 36/78/78
f 37/79/79 38/80/80 44/81/81 43/82/82
f 38/83/83 39/84/84 45/85/85 44/86/86
f 39/87/87 40/88/88 46/89/89 45/90/90
f 40/91/91 41/92/92 47/93/93 46/94/94
f 41/95/95 42/96/96 48/97/97 47/98/98
f 42/99/99 37/100/100 43/101/101 48/102/102
f 85/103/103 86/104/104 87/105/105 88/106/106
f 50/107/107 51/108/108 57/109/109 56/110/110
f 51/111/111 52/112/112 58/113/113 57/114/114
f 52/115/115 53/116/116 59/117/117 58/118/118
f 53/119/119 54/120/120 60/121/121 59/122/122
f 54/123/123 49/124/124 55/125/125 60/126/126
f 61/127/127 62/128/128 68/129/129 67/130/130
f 62/131/131 63/132/132 69/133/133 68/134/134
f 63/135/135 64/136/136 70/137/137 69/138/138
f 64/139/139 65/140/140 71/141/141 70/142/142
f 65/143/143 66/144/144 72/145/145 71/146/146
f 66/147/147 61/148/148 67/149/149 72/150/150
f 89/151/151 90/152/152 91/153/153 92/154/154
f 74/155/155 75/156/156 81/157/157 80/158/158
f 75/159/159 76/160/160 82/161/161 81/162/162
f 76/163/163 77/164/164 83/165/165 82/166/166
f 77/167/167 78/168/168 84/169/169 83/170/170
f 78/171/171 73/172/172 79/173/173 84/174/174
f 49//175 50//176 86//177 85//178
f 50//179 56//180 87//181 86//182
f 56//183 55//184 88//185 87//186
f 55//187 49//188 85//189 88//190
f 73//191 74//192 90//193 89//194
f 74//195 80//196 91//197 90//198
f 80//199 79//200 92//201 91//202
f 79//203 73//204 89//205 92//206
s 2
f 97/175/207 96/176/208 95/177/209 98/178/210
f 94/179/211 93/180/212 98/178/210 95/177/209
