# This file uses meters as units for non-parametric coordinates.

mtllib PLAG_SimpleBldg_06.mtl
g default
v 50.000023 0.000000 -86.602531
v -49.999985 0.000000 -86.602554
v -100.000000 0.000000 -0.000015
v -50.000011 0.000000 86.602539
v 49.999996 0.000000 86.602547
v 100.000000 0.000000 0.000000
v 50.000023 599.999939 -86.602531
v -49.999985 599.999939 -86.602554
v -100.000000 599.999939 -0.000015
v -50.000011 599.999939 86.602539
v 49.999996 599.999939 86.602547
v 100.000000 599.999939 0.000000
vt 0.178520 0.012439
vt 0.985352 0.012438
vt 0.985352 0.819269
vt 0.178522 0.819270
vt 0.178520 0.012438
vt 0.985352 0.012438
vt 0.985352 0.819270
vt 0.178520 0.819269
vt 0.178520 0.012439
vt 0.985352 0.012439
vt 0.985352 0.819269
vt 0.178520 0.819269
vt 0.178521 0.012438
vt 0.985352 0.012438
vt 0.985351 0.819270
vt 0.178521 0.819269
vt 0.178521 0.012438
vt 0.985352 0.012438
vt 0.985352 0.819269
vt 0.178521 0.819270
vt 0.178520 0.012439
vt 0.985351 0.012439
vt 0.985353 0.819269
vt 0.178522 0.819269
vt 0.163027 0.986127
vt 0.063047 0.986127
vt 0.013057 0.899542
vt 0.213016 0.899542
vt 0.063047 0.812957
vt 0.163027 0.812957
vt 0.013057 0.899542
vt 0.063047 0.812957
vt 0.163027 0.812957
vt 0.213016 0.899542
vt 0.163027 0.986127
vt 0.063047 0.986127
vn 0.000000 0.000000 -1.000000
vn 0.000000 0.000000 -1.000000
vn 0.000000 0.000000 -1.000000
vn 0.000000 0.000000 -1.000000
vn -0.866025 0.000000 -0.500000
vn -0.866025 0.000000 -0.500000
vn -0.866025 0.000000 -0.500000
vn -0.866025 0.000000 -0.500000
vn -0.866026 0.000000 0.500000
vn -0.866026 0.000000 0.500000
vn -0.866026 0.000000 0.500000
vn -0.866026 0.000000 0.500000
vn -0.000000 0.000000 1.000000
vn -0.000000 0.000000 1.000000
vn -0.000000 0.000000 1.000000
vn -0.000000 0.000000 1.000000
vn 0.866025 0.000000 0.500000
vn 0.866025 0.000000 0.500000
vn 0.866025 0.000000 0.500000
vn 0.866025 0.000000 0.500000
vn 0.866026 0.000000 -0.500000
vn 0.866026 0.000000 -0.500000
vn 0.866026 0.000000 -0.500000
vn 0.866026 0.000000 -0.500000
vn 0.000000 -1.000000 0.000000
vn 0.000000 -1.000000 0.000000
vn 0.000000 -1.000000 0.000000
vn 0.000000 -1.000000 0.000000
vn 0.000000 -1.000000 0.000000
vn 0.000000 -1.000000 0.000000
vn 0.000000 1.000000 -0.000000
vn 0.000000 1.000000 -0.000001
vn 0.000000 1.000000 -0.000001
vn 0.000000 1.000000 -0.000000
vn 0.000000 1.000000 0.000000
vn 0.000000 1.000000 0.000000
s off
g PLAG_SimpleBldg_06
usemtl lambert3SG
f 1/1/1 2/2/2 8/3/3 7/4/4
f 2/5/5 3/6/6 9/7/7 8/8/8
f 3/9/9 4/10/10 10/11/11 9/12/12
f 4/13/13 5/14/14 11/15/15 10/16/16
f 5/17/17 6/18/18 12/19/19 11/20/20
f 6/21/21 1/22/22 7/23/23 12/24/24
s 1
f 5/25/25 4/26/26 3/27/27 6/28/28
f 2/29/29 1/30/30 6/28/28 3/27/27
s 2
f 9/31/31 10/32/32 11/33/33 12/34/34
f 9/31/31 12/34/34 7/35/35 8/36/36
